<?xml version="1.0" standalone="no"?>
<!DOCTYPE svg PUBLIC "-//W3C//DTD SVG 1.1//EN" "http://www.w3.org/Graphics/SVG/1.1/DTD/svg11.dtd" >
<!--
2013-9-30: Created.
-->
<svg>
<metadata>
Created by iconfont
</metadata>
<defs>

<font id="iconfont" horiz-adv-x="1024" >
  <font-face
    font-family="iconfont"
    font-weight="500"
    font-stretch="normal"
    units-per-em="1024"
    ascent="896"
    descent="-128"
  />
    <missing-glyph />
    
    <glyph glyph-name="xie" unicode="&#59167;" d="M264.2 368.4 191 110.1c-3.5-12.5-0.1-25.9 9-35.2 6.7-6.8 16.1-10.7 25.6-10.7 3.2 0 6.4 0.4 9.4 1.2l260.9 70.5c6.1 1.6 11.6 4.9 16.1 9.3l490.7 490.7c6.8 6.8 10.6 15.9 10.6 25.5s-3.8 18.7-10.6 25.5L815.1 874.8c-6.8 6.8-15.9 10.6-25.5 10.6-9.6 0-18.7-3.8-25.5-10.6L273.4 384C269.1 379.7 265.9 374.3 264.2 368.4zM318.5 325.2 453 190.7l-187-50.6L318.5 325.2zM789.6 809.7l148.2-148.2L505.3 228.9 357 377.2 789.6 809.7zM992 282.5c-17.7 0-32-14.3-32-32l0-205.5c0-60.1-49-109-109.2-109L173.7-64c-60.2 0-109.2 48.9-109.2 109L64.5 733.1c5.1 51.2 47.4 93.3 98.8 98.4L515 831.5c17.7 0 32 14.3 32 32 0 17.7-14.3 32-32 32L205.7 895.5l0 0.5-32 0c-45.8 0-89.2-18.1-122.3-51C18.3 812 0 768.6 0 722.8l0-32 0.5 0 0-645.8c0-95.4 77.7-173 173.2-173l677.2 0c46 0 89.4 18 122.2 50.7 32.8 32.8 50.9 76.2 50.9 122.2L1024 250.5C1024 268.1 1009.7 282.5 992 282.5z"  horiz-adv-x="1024" />

    
    <glyph glyph-name="xie1" unicode="&#58887;" d="M913.117 441.874c-22.607 0-40.933-18.326-40.933-40.932v-377.71H150.37V746.09h376.304c22.607 0 40.932 18.326 40.932 40.932s-18.325 40.932-40.932 40.932H121.963c-29.477 0-53.458-23.98-53.458-53.457v-779.675c0-29.476 23.981-53.456 53.458-53.456H900.59c29.478 0 53.458 23.981 53.458 53.456v406.12c0 22.606-18.326 40.932-40.932 40.932zM296.889 337.782c-0.84-13.706-1.639-32.306-2.371-55.287-1.236-38.76-1.882-77.423-1.89-77.81a40.932 40.932 0 0 1 41.603-41.601c0.386 0.006 39.049 0.651 77.81 1.889 22.98 0.733 41.581 1.53 55.288 2.37 25.284 1.55 40.546 2.486 53.183 15.124l394.041 394.04c0.193 0.19 0.381 0.384 0.57 0.579 0.303 0.296 0.606 0.595 0.907 0.896 57.483 57.483 57.483 151.015 0 208.5-57.484 57.482-151.017 57.483-208.528-0.03-0.29-0.29-0.576-0.581-0.863-0.874-0.196-0.188-0.392-0.38-0.584-0.573l-394.04-394.038c-12.64-12.638-13.575-27.9-15.126-53.185z m82.341 4.627l383.667 383.667a40.05 40.05 0 0 1 1.615 1.59c0.31 0.32 0.617 0.642 0.904 0.93 25.564 25.564 67.16 25.564 92.726 0 25.563-25.565 25.563-67.161 0-92.727-0.307-0.307-0.62-0.604-0.93-0.903a40.535 40.535 0 0 1-1.585-1.612l-383.672-383.67c-18.108-1.43-56.539-2.861-96.587-3.862 1.002 40.047 2.433 78.478 3.862 96.587z"  horiz-adv-x="1024" />

    
    <glyph glyph-name="nv" unicode="&#58974;" d="M774.4 800c-48 35.2-108.8 51.2-172.8 51.2-105.6 0-208-51.2-268.8-150.4-89.6-134.4-57.6-313.6 60.8-416l-32-51.2-188.8 121.6S128 384 108.8 352c-22.4-35.2 22.4-64 22.4-64l188.8-121.6-105.6-163.2s-19.2-32 16-51.2c38.4-22.4 57.6 12.8 57.6 12.8l102.4 160 185.6-121.6s48-28.8 70.4 6.4c19.2 28.8-25.6 57.6-25.6 57.6L432 192l32 48c44.8-22.4 92.8-32 137.6-32 105.6 0 208 51.2 268.8 150.4 96 147.2 51.2 345.6-96 441.6z m35.2-400c-44.8-67.2-118.4-108.8-201.6-108.8-44.8 0-92.8 12.8-131.2 38.4-112 73.6-147.2 220.8-73.6 332.8 44.8 64 121.6 105.6 201.6 108.8 44.8 0 92.8-12.8 131.2-38.4 112-73.6 147.2-220.8 73.6-332.8z"  horiz-adv-x="1024" />

    
    <glyph glyph-name="nan" unicode="&#58975;" d="M889.6 800h-240s-35.2 0-38.4-41.6c0-19.2 16-38.4 38.4-38.4h140.8l-179.2-179.2C556.8 582.4 489.6 608 416 608 240 608 96 464 96 288s144-320 320-320 320 144 320 320c0 73.6-25.6 140.8-67.2 195.2l179.2 179.2v-140.8c0-22.4 19.2-38.4 38.4-38.4 22.4 0 38.4 19.2 38.4 41.6V764.8h3.2C924.8 800 889.6 800 889.6 800zM416 48c-131.2 0-236.8 105.6-236.8 236.8 0 131.2 105.6 236.8 236.8 236.8s236.8-105.6 236.8-236.8c0-131.2-105.6-236.8-236.8-236.8z"  horiz-adv-x="1024" />

    
    <glyph glyph-name="zhongxing" unicode="&#58976;" d="M512 656c-70.4 0-128-57.6-128-128s57.6-128 128-128 128 57.6 128 128-57.6 128-128 128z m0-208c-44.8 0-80 35.2-80 80S467.2 608 512 608s80-35.2 80-80S556.8 448 512 448zM947.2 201.6c3.2 22.4-9.6 41.6-32 48h-9.6c-19.2 0-35.2-12.8-38.4-32l-28.8-137.6-137.6 208c70.4 54.4 115.2 140.8 115.2 236.8C816 694.4 678.4 832 512 832s-304-137.6-304-304c0-96 44.8-182.4 115.2-236.8l-48-73.6-105.6 89.6c-9.6 6.4-16 9.6-25.6 9.6s-22.4-3.2-28.8-12.8l-3.2-3.2c-12.8-16-9.6-38.4 3.2-51.2l118.4-99.2-99.2-153.6c-12.8-19.2-6.4-44.8 12.8-54.4 6.4-3.2 12.8-6.4 19.2-6.4 12.8 0 25.6 6.4 35.2 19.2l92.8 144 105.6-89.6c6.4-6.4 16-9.6 25.6-9.6s22.4 3.2 28.8 12.8l3.2 3.2c12.8 16 9.6 38.4-3.2 51.2l-115.2 99.2 54.4 83.2c35.2-16 76.8-25.6 118.4-25.6s83.2 9.6 118.4 25.6l137.6-214.4-147.2 32c-19.2 0-35.2-12.8-38.4-32-3.2-22.4 9.6-41.6 32-48l243.2-51.2c19.2 0 35.2 12.8 38.4 32 3.2 3.2 51.2 233.6 51.2 233.6zM288 528c0 124.8 99.2 224 224 224s224-99.2 224-224-99.2-224-224-224-224 99.2-224 224z"  horiz-adv-x="1024" />

    
    <glyph glyph-name="shouyeweixuanzhong" unicode="&#58977;" d="M849.455 102.4c0-67.491-58.182-125.673-128-125.673h-418.909c-72.145 0-128 58.182-128 125.673v302.545h-58.182v-302.545c0-100.073 86.109-183.855 186.182-183.855h418.909c104.727 0 186.182 81.455 186.182 183.855v302.545h-58.182v-302.545zM989.091 458.473l-463.127 386.327c-9.309 6.982-20.945 6.982-30.255 0l-460.8-386.327c-11.636-9.309-13.964-27.927-4.655-39.564s27.927-13.964 41.891-4.655l439.855 367.709 439.855-367.709c11.636-9.309 30.255-6.982 41.891 4.655s9.309 30.255-4.655 39.564zM535.273 372.364c18.618 0 34.909-16.291 34.909-34.909v-46.545c0-18.618-16.291-34.909-34.909-34.909h-46.545c-18.618 0-34.909 16.291-34.909 34.909v46.545c0 18.618 16.291 34.909 34.909 34.909h46.545M535.273 430.545h-46.545c-51.2 0-93.091-41.891-93.091-93.091v-46.545c0-51.2 41.891-93.091 93.091-93.091h46.545c51.2 0 93.091 41.891 93.091 93.091v46.545c0 51.2-41.891 93.091-93.091 93.091z"  horiz-adv-x="1024" />

    
    <glyph glyph-name="shouyexuanzhong" unicode="&#58978;" d="M989.090909 458.472727L525.963636 844.8c-9.309091 6.981818-20.945455 6.981818-30.254545 0L34.909091 458.472727c-11.636364-9.309091-13.963636-27.927273-4.654546-39.563636 9.309091-11.636364 27.927273-13.963636 41.89091-4.654546H116.363636v-311.854545c0-100.072727 86.109091-183.854545 186.181819-183.854545h418.90909c104.727273 0 186.181818 81.454545 186.181819 183.854545V414.254545h44.218181c11.636364-9.309091 30.254545-6.981818 41.89091 4.654546s9.309091 30.254545-4.654546 39.563636zM628.363636 288.581818c0-51.2-41.890909-93.090909-93.090909-93.090909h-46.545454c-51.2 0-93.090909 41.890909-93.090909 93.090909v46.545455c0 51.2 41.890909 93.090909 93.090909 93.090909h46.545454c51.2 0 93.090909-41.890909 93.090909-93.090909v-46.545455z"  horiz-adv-x="1024" />

    
    <glyph glyph-name="fenquxuanzhong" unicode="&#58979;" d="M512 372.363636c-134.981818 0-244.363636 109.381818-244.363636 244.363637S377.018182 861.090909 512 861.090909 756.363636 751.709091 756.363636 616.727273 646.981818 372.363636 512 372.363636zM244.363636-93.090909C109.381818-93.090909 0 16.290909 0 151.272727s109.381818 244.363636 244.363636 244.363637S488.727273 286.254545 488.727273 151.272727s-109.381818-244.363636-244.363637-244.363636zM779.636364-93.090909C644.654545-93.090909 535.272727 16.290909 535.272727 151.272727s109.381818 244.363636 244.363637 244.363637S1024 286.254545 1024 151.272727s-109.381818-244.363636-244.363636-244.363636z"  horiz-adv-x="1024" />

    
    <glyph glyph-name="fenquweixuanzhong" unicode="&#58980;" d="M512 802.909091c102.4 0 186.181818-83.781818 186.181818-186.181818s-83.781818-186.181818-186.181818-186.181818-186.181818 83.781818-186.181818 186.181818 83.781818 186.181818 186.181818 186.181818m0 58.181818c-134.981818 0-244.363636-109.381818-244.363636-244.363636S377.018182 372.363636 512 372.363636 756.363636 481.745455 756.363636 616.727273 646.981818 861.090909 512 861.090909zM244.363636 337.454545c102.4 0 186.181818-83.781818 186.181819-186.181818s-83.781818-186.181818-186.181819-186.181818-186.181818 83.781818-186.181818 186.181818 83.781818 186.181818 186.181818 186.181818m0 58.181819C109.381818 395.636364 0 286.254545 0 151.272727s109.381818-244.363636 244.363636-244.363636S488.727273 16.290909 488.727273 151.272727s-109.381818 244.363636-244.363637 244.363637zM779.636364 337.454545c102.4 0 186.181818-83.781818 186.181818-186.181818s-83.781818-186.181818-186.181818-186.181818-186.181818 83.781818-186.181819 186.181818 83.781818 186.181818 186.181819 186.181818m0 58.181819C644.654545 395.636364 535.272727 286.254545 535.272727 151.272727s109.381818-244.363636 244.363637-244.363636S1024 16.290909 1024 151.272727s-109.381818 244.363636-244.363636 244.363637z"  horiz-adv-x="1024" />

    
    <glyph glyph-name="dongtaixuanzhong" unicode="&#58981;" d="M1000.727273 507.345455c4.654545 20.945455-6.981818 37.236364-13.963637 44.218181-34.909091 48.872727-97.745455 104.727273-153.6 134.981819-30.254545 16.290909-62.836364 27.927273-95.418181 34.90909-32.581818 9.309091-67.490909 13.963636-102.4 13.963637-18.618182 4.654545-79.127273 116.363636-93.09091 130.327273-4.654545 6.981818-11.636364 6.981818-20.945454 6.981818-34.909091-9.309091-67.490909-18.618182-102.4-34.909091-30.254545-16.290909-60.509091-34.909091-88.436364-60.509091-25.6-20.945455-48.872727-48.872727-72.145454-79.127273-18.618182-30.254545-37.236364-76.8-51.2-102.4-34.909091-16.290909-137.309091-55.854545-137.309091-55.854545s-25.6-11.636364-37.236364-23.272728-13.963636-37.236364-13.963636-46.545454c0-32.581818 2.327273-65.163636 9.309091-100.072727 9.309091-32.581818 16.290909-62.836364 30.254545-93.090909s30.254545-58.181818 51.2-86.109091c18.618182-25.6 74.472727-79.127273 74.472727-79.127273s-4.654545-86.109091 6.981819-139.636364c2.327273-16.290909 9.309091-27.927273 13.963636-34.909091 25.6-25.6 95.418182-44.218182 130.327273-44.218181 83.781818-4.654545 144.290909 6.981818 190.836363 23.272727 25.6 9.309091 74.472727 37.236364 86.109091 44.218182h4.654546l134.981818-51.2c6.981818-2.327273 25.6 0 32.581818 4.654545 6.981818 4.654545 23.272727 25.6 27.927273 32.581818 27.927273 30.254545 69.818182 132.654545 76.8 176.872728 4.654545 32.581818 9.309091 62.836364 9.309091 95.418181-2.327273 32.581818-4.654545 65.163636-13.963637 95.418182v13.963637c4.654545 6.981818 107.054545 137.309091 116.363637 179.2zM358.4 253.672727c-11.636364-11.636364-30.254545-11.636364-41.890909 0s-11.636364 30.254545 0 41.890909l53.527273 53.527273-55.854546 41.890909c-13.963636 9.309091-16.290909 27.927273-6.981818 39.563637 9.309091 13.963636 27.927273 16.290909 39.563636 6.981818l90.763637-65.163637c11.636364-9.309091 13.963636-25.6 2.327272-34.909091l-81.454545-83.781818zM651.636364 302.545455c-32.581818 0-58.181818 25.6-58.181819 58.181818s25.6 58.181818 58.181819 58.181818 58.181818-25.6 58.181818-58.181818-25.6-58.181818-58.181818-58.181818z"  horiz-adv-x="1024" />

    
    <glyph glyph-name="dongtaiweixuanzhong" unicode="&#58982;" d="M889.018182 332.8c2.327273 4.654545 104.727273 134.981818 114.036363 176.872727 2.327273 18.618182-9.309091 37.236364-13.963636 44.218182-34.909091 48.872727-100.072727 104.727273-153.6 134.981818-30.254545 16.290909-62.836364 25.6-95.418182 34.909091-34.909091 9.309091-69.818182 13.963636-102.4 13.963637-6.981818 0-16.290909-4.654545-20.945454-9.309091-6.981818-4.654545-9.309091-11.636364-9.309091-20.945455 0-6.981818 4.654545-13.963636 9.309091-18.618182 4.654545-6.981818 11.636364-9.309091 20.945454-9.309091 25.6 0 55.854545-4.654545 88.436364-6.981818 27.927273-6.981818 55.854545-18.618182 83.781818-32.581818s128-86.109091 130.327273-123.345455c-4.654545-23.272727-109.381818-165.236364-109.381818-165.236363-6.981818-9.309091-4.654545-16.290909-2.327273-25.6 18.618182-55.854545 16.290909-144.290909 6.981818-186.181818-6.981818-27.927273-13.963636-53.527273-25.6-79.127273-11.636364-27.927273-32.581818-65.163636-51.2-83.781818-11.636364 2.327273-114.036364 48.872727-125.672727 51.2-6.981818 0-13.963636 0-18.618182-2.327273-32.581818-16.290909-148.945455-67.490909-188.509091-69.818182-25.6-2.327273-53.527273-2.327273-81.454545 0-27.927273 2.327273-69.818182 11.636364-86.109091 25.6-13.963636 11.636364-4.654545 141.963636-13.963637 158.254546s-69.818182 69.818182-83.781818 90.763636c-18.618182 23.272727-32.581818 46.545455-44.218182 72.145455-13.963636 25.6-23.272727 53.527273-27.927272 81.454545-4.654545 30.254545-6.981818 88.436364-4.654546 93.090909 0 0 158.254545 67.490909 165.236364 76.8 13.963636 11.636364 44.218182 83.781818 60.509091 109.381818s39.563636 51.2 60.509091 69.818182c25.6 20.945455 51.2 37.236364 83.781818 53.527273 25.6 13.963636 53.527273 25.6 83.781818 30.254545 6.981818 2.327273 13.963636 4.654545 18.618182 13.963637 2.327273 4.654545 4.654545 11.636364 2.327273 20.945454 0 4.654545-6.981818 13.963636-11.636364 16.290909-4.654545 4.654545-11.636364 4.654545-20.945455 4.654546-37.236364-6.981818-69.818182-18.618182-102.4-34.909091-30.254545-16.290909-60.509091-34.909091-88.436363-60.509091-25.6-20.945455-51.2-48.872727-72.145455-79.127273-18.618182-30.254545-37.236364-76.8-51.2-102.4-34.909091-16.290909-137.309091-55.854545-137.309091-55.854545s-27.927273-11.636364-37.236363-23.272728c-11.636364-13.963636-13.963636-37.236364-13.963637-46.545454 0-32.581818 2.327273-65.163636 6.981818-97.745455 9.309091-32.581818 16.290909-62.836364 30.254546-93.090909 13.963636-30.254545 30.254545-58.181818 51.2-86.109091 18.618182-23.272727 74.472727-79.127273 74.472727-79.127272s-2.327273-88.436364 6.981818-139.636364c2.327273-16.290909 9.309091-30.254545 13.963637-34.909091 25.6-25.6 97.745455-41.890909 130.327272-44.218182 83.781818-2.327273 141.963636 6.981818 190.836364 23.272728 27.927273 9.309091 74.472727 37.236364 86.109091 44.218181h4.654545l134.981819-51.2c6.981818-2.327273 25.6 0 32.581818 4.654546 6.981818 4.654545 20.945455 25.6 27.927273 32.581818 27.927273 30.254545 69.818182 132.654545 79.127272 179.2 6.981818 32.581818 9.309091 62.836364 9.309091 95.418182-2.327273 32.581818-4.654545 65.163636-13.963636 95.418182-2.327273 6.981818 0 11.636364 0 13.963636zM651.636364 360.727273m-58.181819 0a58.181818 58.181818 0 1 1 116.363637 0 58.181818 58.181818 0 1 1-116.363637 0ZM318.836364 253.672727c11.636364-11.636364 30.254545-11.636364 41.890909 0l81.454545 81.454546c9.309091 9.309091 9.309091 25.6-2.327273 34.909091L349.090909 437.527273c-13.963636 9.309091-30.254545 6.981818-39.563636-6.981818-9.309091-13.963636-6.981818-30.254545 6.981818-39.563637l55.854545-41.890909-53.527272-53.527273c-11.636364-11.636364-11.636364-30.254545 0-41.890909z"  horiz-adv-x="1024" />

    
    <glyph glyph-name="wodeweixuanzhong" unicode="&#58983;" d="M882.036364-48.872727L791.272727-16.290909c125.672727 88.436364 209.454545 235.054545 209.454546 400.290909 0 269.963636-218.763636 488.727273-488.727273 488.727273S23.272727 653.963636 23.272727 384c0-165.236364 81.454545-311.854545 209.454546-400.290909l-90.763637-32.581818c-16.290909-4.654545-23.272727-20.945455-18.618181-34.909091l2.327272-4.654546c4.654545-13.963636 20.945455-20.945455 37.236364-16.290909l128 46.545455c16.290909 2.327273 27.927273 16.290909 27.927273 34.909091 0 13.963636-6.981818 23.272727-18.618182 30.254545-2.327273 2.327273-6.981818 2.327273-9.309091 4.654546-134.981818 79.127273-223.418182 230.4-209.454546 402.618181 16.290909 204.8 176.872727 372.363636 379.345455 395.636364 16.290909 2.327273 32.581818 2.327273 48.872727 2.327273 16.290909 0 32.581818 0 48.872728-2.327273 202.472727-23.272727 365.381818-190.836364 379.345454-395.636364 11.636364-169.890909-74.472727-321.163636-209.454545-402.618181-2.327273-2.327273-4.654545-2.327273-9.309091-4.654546-11.636364-6.981818-18.618182-16.290909-18.618182-30.254545 0-16.290909 11.636364-30.254545 27.927273-34.909091l128-46.545455c16.290909-4.654545 32.581818 2.327273 37.236363 16.290909l2.327273 4.654546c9.309091 13.963636 2.327273 30.254545-13.963636 34.909091zM372.363636 535.272727m-51.2 0a51.2 51.2 0 1 1 102.4 0 51.2 51.2 0 1 1-102.4 0ZM674.909091 535.272727m-51.2 0a51.2 51.2 0 1 1 102.4 0 51.2 51.2 0 1 1-102.4 0ZM751.709091 384c4.654545 11.636364-6.981818 23.272727-18.618182 23.272727s-23.272727-9.309091-23.272727-23.272727c0-48.872727-39.563636-88.436364-88.436364-88.436364-48.872727 0-86.109091 39.563636-86.109091 88.436364 0 11.636364-9.309091 23.272727-23.272727 23.272727-11.636364 0-23.272727-9.309091-23.272727-23.272727 0-48.872727-39.563636-88.436364-88.436364-88.436364-48.872727 0-88.436364 39.563636-88.436364 88.436364 0 11.636364-9.309091 23.272727-23.272727 23.272727s-23.272727-9.309091-23.272727-23.272727c0-74.472727 60.509091-132.654545 132.654545-132.654545 46.545455 0 86.109091 23.272727 109.381819 58.181818 23.272727-34.909091 65.163636-58.181818 111.70909-58.181818 74.472727 0 132.654545 60.509091 132.654546 132.654545z"  horiz-adv-x="1024" />

    
    <glyph glyph-name="wodexuanzhong" unicode="&#58984;" d="M882.036364-48.872727L791.272727-16.290909c125.672727 88.436364 209.454545 235.054545 209.454546 400.290909 0 269.963636-218.763636 488.727273-488.727273 488.727273S23.272727 653.963636 23.272727 384c0-165.236364 81.454545-311.854545 209.454546-400.290909l-90.763637-32.581818c-16.290909-4.654545-23.272727-20.945455-18.618181-34.909091l2.327272-4.654546c4.654545-13.963636 20.945455-20.945455 37.236364-16.290909h700.509091c16.290909-4.654545 32.581818 2.327273 37.236363 16.290909l2.327273 4.654546c2.327273 13.963636-4.654545 30.254545-20.945454 34.909091zM674.909091 588.8c27.927273 0 51.2-23.272727 51.2-51.2s-23.272727-51.2-51.2-51.2-51.2 23.272727-51.2 51.2 23.272727 51.2 51.2 51.2z m-302.545455 0c27.927273 0 51.2-23.272727 51.2-51.2s-23.272727-51.2-51.2-51.2-51.2 23.272727-51.2 51.2 23.272727 51.2 51.2 51.2z m251.345455-337.454545c-46.545455 0-86.109091 23.272727-111.709091 58.181818-23.272727-34.909091-65.163636-58.181818-109.381818-58.181818-74.472727 0-132.654545 60.509091-132.654546 132.654545 0 11.636364 9.309091 23.272727 23.272728 23.272727s23.272727-9.309091 23.272727-23.272727c0-48.872727 39.563636-88.436364 88.436364-88.436364S488.727273 335.127273 488.727273 384c0 11.636364 9.309091 23.272727 23.272727 23.272727 11.636364 0 23.272727-9.309091 23.272727-23.272727 0-48.872727 39.563636-88.436364 88.436364-88.436364s88.436364 39.563636 88.436364 88.436364c0 11.636364 9.309091 23.272727 23.272727 23.272727s23.272727-9.309091 23.272727-23.272727c-2.327273-74.472727-62.836364-132.654545-134.981818-132.654545z"  horiz-adv-x="1024" />

    
    <glyph glyph-name="faxianweixuanzhongxuanzhong" unicode="&#58985;" d="M991.418182-44.218182l-228.072727 228.072727C823.854545 256 861.090909 351.418182 861.090909 453.818182c0 230.4-188.509091 418.909091-418.909091 418.909091S23.272727 684.218182 23.272727 453.818182s188.509091-418.909091 418.909091-418.909091c102.4 0 197.818182 37.236364 269.963637 100.072727l228.072727-228.072727c13.963636-13.963636 34.909091-13.963636 48.872727 0 13.963636 11.636364 13.963636 34.909091 2.327273 48.872727zM442.181818 93.090909c-200.145455 0-360.727273 160.581818-360.727273 360.727273S242.036364 814.545455 442.181818 814.545455 802.909091 653.963636 802.909091 453.818182 642.327273 93.090909 442.181818 93.090909z"  horiz-adv-x="1024" />

    
    <glyph glyph-name="danmushu" unicode="&#58986;" d="M800 768H224C134.4 768 64 697.6 64 608v-448c0-89.6 70.4-160 160-160h576c89.6 0 160 70.4 160 160V608c0 89.6-70.4 160-160 160z m96-608c0-54.4-41.6-96-96-96H224c-54.4 0-96 41.6-96 96V608c0 54.4 41.6 96 96 96h576c54.4 0 96-41.6 96-96v-448zM240 512h64v-64h-64zM368 512h384v-64h-384zM432 320h352v-64h-352zM304 320h64v-64h-64z"  horiz-adv-x="1024" />

    
    <glyph glyph-name="zhuifanshu" unicode="&#58987;" d="M512 0c-6.4 0-16 3.2-22.4 6.4-28.8 22.4-275.2 214.4-326.4 288-57.6 76.8-67.2 118.4-67.2 192C96 640 208 768 348.8 768c60.8 0 118.4-22.4 163.2-64 44.8 41.6 102.4 64 163.2 64 140.8 0 252.8-128 252.8-281.6 0-70.4-9.6-112-67.2-192-51.2-70.4-300.8-265.6-326.4-288-6.4-3.2-16-6.4-22.4-6.4zM358.4 704C256 704 160 595.2 160 473.6c0-38.4 0-83.2 48-150.4 38.4-51.2 214.4-185.6 304-259.2 89.6 73.6 265.6 208 304 259.2 48 67.2 48 115.2 48 150.4C864 595.2 768 704 665.6 704c-54.4 0-89.6-25.6-134.4-64-12.8-9.6-19.2-9.6-19.2-9.6s-6.4 0-16 6.4C448 675.2 412.8 704 358.4 704z"  horiz-adv-x="1024" />

    
    <glyph glyph-name="zhiboguankanshu" unicode="&#58988;" d="M512 576c-105.6 0-192-86.4-192-192s86.4-192 192-192 192 86.4 192 192-86.4 192-192 192z m0-320c-70.4 0-128 57.6-128 128s57.6 128 128 128 128-57.6 128-128-57.6-128-128-128z m428.8 156.8C883.2 492.8 713.6 704 512 704 310.4 704 140.8 492.8 83.2 412.8c-12.8-19.2-12.8-41.6 0-60.8 57.6-76.8 227.2-288 428.8-288 201.6 0 371.2 211.2 428.8 291.2 12.8 16 12.8 41.6 0 57.6z m-64-48C835.2 307.2 688 128 512 128S188.8 307.2 147.2 364.8c-9.6 12.8-9.6 25.6 0 38.4C188.8 460.8 336 640 512 640s323.2-179.2 364.8-236.8c9.6-12.8 9.6-25.6 0-38.4z"  horiz-adv-x="1024" />

    
    <glyph glyph-name="bofangshu" unicode="&#58989;" d="M800 768H224C134.4 768 64 697.6 64 608v-448c0-89.6 70.4-160 160-160h576c89.6 0 160 70.4 160 160V608c0 89.6-70.4 160-160 160z m96-608c0-54.4-41.6-96-96-96H224c-54.4 0-96 41.6-96 96V608c0 54.4 41.6 96 96 96h576c54.4 0 96-41.6 96-96v-448zM684.8 412.8l-256 112c-22.4 9.6-44.8-6.4-44.8-28.8v-224c0-22.4 22.4-38.4 44.8-28.8l256 112c25.6 9.6 25.6 48 0 57.6z"  horiz-adv-x="1024" />

    
    <glyph glyph-name="UPzhu" unicode="&#58990;" d="M800 768H224C134.4 768 64 697.6 64 608v-448c0-89.6 70.4-160 160-160h576c89.6 0 160 70.4 160 160V608c0 89.6-70.4 160-160 160z m96-608c0-54.4-41.6-96-96-96H224c-54.4 0-96 41.6-96 96V608c0 54.4 41.6 96 96 96h576c54.4 0 96-41.6 96-96v-448zM419.2 352c0-51.2-3.2-108.8-83.2-108.8S252.8 300.8 252.8 352v217.6H192v-243.2c0-96 51.2-140.8 140.8-140.8 89.6 0 147.2 48 147.2 144v240h-60.8V352zM710.4 569.6h-156.8V192h60.8v147.2h96c102.4 0 121.6 67.2 121.6 115.2 0 44.8-19.2 115.2-121.6 115.2z m-3.2-179.2h-92.8V512h92.8c32 0 60.8-12.8 60.8-60.8 0-44.8-32-60.8-60.8-60.8z"  horiz-adv-x="1024" />

    
    <glyph glyph-name="shipindaxiao" unicode="&#58991;" d="M640 768H224C134.4 768 64 697.6 64 608v-448c0-89.6 70.4-160 160-160h576c89.6 0 160 70.4 160 160v288L640 768z m16-105.6l182.4-182.4h-150.4c-19.2 0-32 12.8-32 32V662.4zM800 64H224c-54.4 0-96 41.6-96 96V608c0 54.4 41.6 96 96 96h368v-192c0-54.4 41.6-96 96-96H896v-256c0-54.4-41.6-96-96-96z"  horiz-adv-x="1024" />

    
    <glyph glyph-name="Bbi" unicode="&#58992;" d="M512 832c246.4 0 448-198.4 448-448 0-246.4-201.6-448-448-448-249.6 0-448 201.6-448 448C64 633.6 262.4 832 512 832z m28.8-300.8v-70.4h172.8v-230.4h-57.6v176h-115.2V0c198.4 16 355.2 182.4 355.2 384 0 214.4-172.8 384-384 384C297.6 768 128 598.4 128 384c0-201.6 156.8-368 355.2-384V403.2h-115.2v-176H310.4v233.6h172.8v67.2l-169.6-16-3.2 28.8-3.2 28.8 403.2 35.2 3.2-28.8 3.2-28.8-176-16z"  horiz-adv-x="1024" />

    
    <glyph glyph-name="fenxiang" unicode="&#58993;" d="M928 416c-16 0-32-16-32-32 0-214.4-169.6-384-384-384-211.2 0-384 169.6-384 384C128 595.2 300.8 768 512 768c16 0 32 16 32 32s-16 32-32 32C262.4 832 64 630.4 64 384s201.6-448 448-448 448 201.6 448 448c0 16-16 32-32 32zM697.6 784c-16 0-32-12.8-32-32 0-16 12.8-28.8 32-28.8h112l-185.6-185.6c-32 22.4-70.4 38.4-112 38.4-105.6 0-192-86.4-192-192s86.4-192 192-192 192 86.4 192 192c0 41.6-12.8 80-38.4 112l185.6 185.6v-112c0-16 12.8-28.8 32-28.8 16 0 32 12.8 32 28.8V784h-217.6zM512 256c-70.4 0-128 57.6-128 128s57.6 128 128 128 128-57.6 128-128-57.6-128-128-128z"  horiz-adv-x="1024" />

    
    <glyph glyph-name="xiazai" unicode="&#58994;" d="M662.4 764.8c131.2-12.8 233.6-124.8 233.6-259.2v-243.2c0-144-118.4-262.4-265.6-262.4h-243.2c-147.2 0-265.6 115.2-265.6 262.4v243.2c0 134.4 105.6 246.4 236.8 259.2 41.6 3.2 32 64-6.4 60.8-156.8-16-288-156.8-288-320v-243.2c0-179.2 147.2-323.2 326.4-323.2h243.2c179.2 0 326.4 144 326.4 323.2v243.2c0 163.2-131.2 304-294.4 320-38.4 3.2-44.8-54.4-3.2-60.8z m-172.8-566.4c12.8-12.8 32-12.8 44.8 0l256 240c28.8 28.8-16 73.6-44.8 44.8l-201.6-192V806.4c0 41.6-64 41.6-64 0v-515.2L278.4 480c-28.8 28.8-76.8-16-44.8-44.8l256-236.8z"  horiz-adv-x="1024" />

    
    <glyph glyph-name="shoucang" unicode="&#58995;" d="M905.6 540.8l-166.4 25.6c-41.6 6.4-80 35.2-96 73.6l-73.6 153.6c-22.4 51.2-92.8 51.2-118.4 0L380.8 640c-19.2-38.4-54.4-67.2-96-73.6l-166.4-25.6c-51.2-6.4-73.6-70.4-35.2-108.8l124.8-128c28.8-28.8 41.6-70.4 35.2-112l-28.8-179.2c-9.6-54.4 48-92.8 96-67.2l140.8 76.8c38.4 22.4 86.4 22.4 124.8 0l140.8-76.8c48-25.6 102.4 12.8 96 67.2l-32 179.2c-6.4 41.6 6.4 83.2 35.2 112l124.8 128c38.4 38.4 16 102.4-35.2 108.8z m-28.8-83.2l-105.6-108.8c-41.6-41.6-60.8-102.4-51.2-163.2l25.6-153.6c3.2-12.8-12.8-22.4-22.4-16l-118.4 64c-57.6 32-128 32-185.6 0l-118.4-64c-12.8-6.4-25.6 3.2-22.4 16l25.6 153.6c9.6 57.6-9.6 118.4-51.2 163.2l-105.6 108.8c-9.6 9.6-3.2 25.6 9.6 25.6l134.4 19.2c64 9.6 118.4 51.2 144 108.8l60.8 131.2c6.4 12.8 22.4 12.8 28.8 0l60.8-131.2c25.6-57.6 80-96 144-105.6l134.4-19.2c16-6.4 19.2-19.2 12.8-28.8z"  horiz-adv-x="1024" />

    
    <glyph glyph-name="shoucangtianchong" unicode="&#58996;" d="M905.6 540.8l-166.4 25.6c-41.6 6.4-80 35.2-96 73.6l-73.6 153.6c-22.4 51.2-92.8 51.2-118.4 0L380.8 640c-19.2-38.4-54.4-67.2-96-73.6l-166.4-25.6c-51.2-6.4-73.6-70.4-35.2-108.8l124.8-128c28.8-28.8 41.6-70.4 35.2-112l-28.8-179.2c-9.6-54.4 48-92.8 96-67.2l140.8 76.8c38.4 22.4 86.4 22.4 124.8 0l140.8-76.8c48-25.6 102.4 12.8 96 67.2l-32 179.2c-6.4 41.6 6.4 83.2 35.2 112l124.8 128c38.4 38.4 16 102.4-35.2 108.8z"  horiz-adv-x="1024" />

    
    <glyph glyph-name="suijibofang" unicode="&#58997;" d="M844.8 230.4c-6.4 6.4-16 12.8-25.6 9.6-19.2 0-35.2-16-35.2-35.2 0-9.6 6.4-19.2 12.8-25.6l41.6-41.6c-44.8 6.4-86.4 22.4-121.6 51.2-3.2 0-3.2 3.2-6.4 6.4L332.8 592C268.8 662.4 192 700.8 99.2 700.8c-19.2 0-35.2-16-35.2-35.2s16-32 35.2-32c73.6 0 134.4-32 182.4-86.4l384-400 6.4-6.4c48-38.4 108.8-64 172.8-70.4l-48-44.8c-9.6-6.4-16-19.2-16-28.8 0-19.2 19.2-35.2 38.4-32 9.6 0 19.2 6.4 25.6 12.8l99.2 92.8c16 16 16 41.6 0 57.6l-99.2 102.4z m-3.2 556.8c-12.8 16-32 19.2-48 6.4-9.6-6.4-12.8-16-12.8-25.6 0-12.8 3.2-22.4 16-28.8l41.6-41.6c-73.6-9.6-140.8-38.4-192-89.6l-115.2-118.4c-12.8-12.8-12.8-32 0-44.8 6.4-6.4 16-9.6 25.6-9.6s19.2 3.2 25.6 9.6l112 118.4c41.6 38.4 92.8 64 147.2 70.4l-44.8-44.8c-6.4-6.4-12.8-16-12.8-25.6 0-19.2 16-35.2 32-35.2 9.6 0 19.2 3.2 28.8 9.6L950.4 640c12.8 12.8 12.8 35.2 0 48l-108.8 99.2m-438.4-448c-9.6 0-19.2-3.2-25.6-9.6l-118.4-121.6c-48-44.8-96-67.2-160-67.2H96c-19.2 0-35.2-16-35.2-35.2s16-32 35.2-32h3.2c83.2 0 147.2 32 211.2 86.4l121.6 124.8c6.4 6.4 9.6 12.8 9.6 22.4 0 9.6-3.2 16-9.6 22.4-9.6 6.4-19.2 9.6-28.8 9.6z"  horiz-adv-x="1024" />

    
    <glyph glyph-name="xunhuanbofang" unicode="&#58998;" d="M694.4 41.6H195.2l48-44.8c9.6-6.4 16-16 16-28.8-3.2-19.2-19.2-32-38.4-32-9.6 0-22.4 6.4-28.8 12.8l-108.8 96c-12.8 12.8-16 35.2 0 48L192 192c6.4 6.4 19.2 9.6 28.8 9.6 19.2 0 35.2-16 35.2-35.2 0-9.6-6.4-19.2-12.8-25.6l-41.6-38.4h496c112 0 198.4 89.6 198.4 198.4v86.4c0 19.2 12.8 32 32 32s32-12.8 32-32v-86.4c0-140.8-118.4-259.2-265.6-259.2zM329.6 726.4h496l-48 44.8c-9.6 6.4-16 16-16 28.8 3.2 19.2 19.2 32 38.4 32 9.6 0 22.4-6.4 28.8-12.8l108.8-96c12.8-12.8 16-35.2 0-48L832 576c-6.4-6.4-19.2-9.6-28.8-9.6-19.2 0-35.2 16-35.2 35.2 0 9.6 6.4 19.2 12.8 25.6l41.6 38.4H326.4C217.6 662.4 128 572.8 128 460.8v-89.6c0-19.2-12.8-32-32-32s-32 12.8-32 32v86.4C64 608 182.4 726.4 329.6 726.4z"  horiz-adv-x="1024" />

    
    <glyph glyph-name="danquxunhuan" unicode="&#58999;" d="M928 419.2c-19.2 0-32-12.8-32-32v-86.4c0-108.8-86.4-198.4-198.4-198.4H201.6l41.6 38.4c6.4 6.4 12.8 16 12.8 25.6 0 19.2-16 35.2-35.2 35.2-9.6 0-22.4-3.2-28.8-9.6l-108.8-99.2c-16-12.8-12.8-35.2 0-48l108.8-96c6.4-6.4 19.2-12.8 28.8-12.8 19.2 0 35.2 12.8 38.4 32 0 12.8-6.4 22.4-16 28.8l-48 44.8h499.2c147.2 0 265.6 118.4 265.6 259.2v86.4c0 19.2-12.8 32-32 32zM96 339.2c19.2 0 32 12.8 32 32v89.6c0 112 89.6 201.6 198.4 204.8h496l-41.6-38.4c-6.4-6.4-12.8-16-12.8-25.6 0-19.2 16-35.2 35.2-35.2 9.6 0 22.4 3.2 28.8 9.6l105.6 99.2c16 12.8 12.8 35.2 0 48l-108.8 96c-6.4 6.4-19.2 12.8-28.8 12.8-19.2 0-35.2-12.8-38.4-32 0-12.8 6.4-22.4 16-28.8l48-44.8H329.6C182.4 726.4 64 608 64 457.6v-86.4c0-19.2 12.8-32 32-32zM544 224V544h-48L416 486.4l16-41.6 60.8 41.6V224z"  horiz-adv-x="1024" />

    
    <glyph glyph-name="quanping" unicode="&#59000;" d="M864 416c-19.2 0-32-16-32-32v-275.2L236.8 704H512c19.2 0 32 12.8 32 32s-16 32-32 32H160c-19.2 0-32-16-32-32v-352c0-19.2 16-32 32-32 19.2 0 32 16 32 32V659.2L787.2 64H512c-19.2 0-32-12.8-32-32s16-32 32-32h352c16 0 32 16 32 32V384c0 19.2-16 32-32 32z"  horiz-adv-x="1024" />

    
    <glyph glyph-name="sousuo" unicode="&#59001;" d="M448 768c176 0 320-144 320-320 0-73.6-25.6-147.2-73.6-204.8l-19.2-22.4-22.4-19.2C595.2 153.6 521.6 128 448 128 272 128 128 272 128 448S272 768 448 768m0 64C236.8 832 64 659.2 64 448s172.8-384 384-384c92.8 0 179.2 35.2 246.4 89.6l211.2-208c6.4-6.4 12.8-9.6 22.4-9.6s16 3.2 22.4 9.6c12.8 16 12.8 35.2 0 48l-208 208c54.4 67.2 89.6 153.6 89.6 246.4 0 211.2-172.8 384-384 384z"  horiz-adv-x="1024" />

    
    <glyph glyph-name="shaixuan" unicode="&#59002;" d="M512-64c-57.6 0-112 54.4-112 112V387.2v3.2L115.2 723.2c-16 19.2-22.4 41.6-16 64C108.8 816 131.2 832 160 832h697.6c22.4 0 48-9.6 60.8-32 16-25.6 12.8-54.4-6.4-73.6l-288-339.2v-342.4c0-54.4-54.4-108.8-112-108.8z m316.8 832H195.2c-12.8 0-22.4-16-12.8-25.6l272-320c6.4-6.4 9.6-16 9.6-22.4v-352c0-22.4 25.6-48 48-48s48 25.6 48 48v352c0 9.6 3.2 16 9.6 22.4l272 320c9.6 9.6 0 25.6-12.8 25.6z"  horiz-adv-x="1024" />

    
    <glyph glyph-name="lishijilu" unicode="&#59003;" d="M512 832C265.6 832 64 630.4 64 384s201.6-448 448-448 448 201.6 448 448S758.4 832 512 832z m0-832C300.8 0 128 172.8 128 384S300.8 768 512 768s384-172.8 384-384-172.8-384-384-384zM544 396.8V640c0 19.2-16 32-32 32-19.2 0-32-16-32-32v-256c0-12.8 6.4-19.2 12.8-25.6l179.2-179.2c12.8-12.8 32-12.8 44.8 0 12.8 12.8 12.8 35.2 0 44.8L544 396.8z"  horiz-adv-x="1024" />

    
    <glyph glyph-name="shoucangjia" unicode="&#59004;" d="M326.4 640l236.8-236.8c12.8-12.8 28.8-19.2 44.8-19.2h256v-256c0-35.2-28.8-64-64-64H192c-35.2 0-64 28.8-64 64V576c0 35.2 28.8 64 64 64h134.4m25.6 64H192c-70.4 0-128-57.6-128-128v-448c0-70.4 57.6-128 128-128h608c70.4 0 128 57.6 128 128V448H608l-256 256zM729.6 713.6l12.8-32c12.8-32 41.6-54.4 76.8-60.8l51.2-9.6-38.4-48h-185.6l-51.2 54.4 44.8 6.4c32 6.4 60.8 28.8 76.8 60.8l12.8 28.8m0 118.4c-12.8 0-25.6-6.4-32-19.2l-44.8-102.4c-3.2-9.6-12.8-19.2-25.6-19.2l-102.4-19.2c-25.6-3.2-38.4-38.4-19.2-60.8l102.4-105.6c6.4-6.4 16-9.6 22.4-9.6h217.6c9.6 0 19.2 3.2 25.6 12.8l76.8 102.4c19.2 22.4 9.6 57.6-19.2 60.8l-102.4 16c-9.6 3.2-19.2 9.6-25.6 19.2l-44.8 102.4c-6.4 16-19.2 22.4-28.8 22.4z"  horiz-adv-x="1024" />

    
    <glyph glyph-name="shaixuanpaixu" unicode="&#59005;" d="M400 800c-9.6 0-19.2-3.2-22.4-9.6l-288-284.8c-12.8-12.8-12.8-32 0-44.8 12.8-12.8 32-12.8 44.8 0l233.6 230.4V0c0-16 16-32 32-32s32 16 32 32V768c0 16-16 32-32 32zM934.4 307.2c-12.8 12.8-32 12.8-44.8 0l-233.6-230.4V768c0 16-16 32-32 32s-32-16-32-32v-768c0-16 16-32 32-32 9.6 0 19.2 3.2 22.4 9.6l288 284.8c12.8 12.8 12.8 32 0 44.8z"  horiz-adv-x="1024" />

    
    <glyph glyph-name="tianjia" unicode="&#59006;" d="M864 416H544V736c0 19.2-12.8 32-32 32s-32-16-32-32v-320H160c-19.2 0-32-16-32-32 0-19.2 16-32 32-32h320v-320c0-19.2 16-32 32-32 19.2 0 32 16 32 32V352h320c19.2 0 32 12.8 32 32s-16 32-32 32z"  horiz-adv-x="1024" />

    
    <glyph glyph-name="shuayishua" unicode="&#59007;" d="M288 240c-19.2 0-32-12.8-32-32V96c-83.2 70.4-131.2 176-131.2 288C124.8 598.4 297.6 771.2 512 771.2c38.4 0 76.8-6.4 115.2-19.2 16-6.4 32 3.2 38.4 19.2 6.4 16-3.2 32-19.2 38.4-44.8 12.8-89.6 19.2-134.4 19.2C265.6 828.8 67.2 630.4 67.2 384c0-121.6 51.2-236.8 137.6-320H112c-19.2 0-32-12.8-32-32s12.8-32 32-32h163.2c9.6 0 22.4 0 32 12.8 12.8 12.8 12.8 25.6 12.8 35.2v160c0 19.2-12.8 32-32 32zM822.4 704h89.6c19.2 0 32 12.8 32 32s-12.8 32-32 32h-160c-12.8 0-25.6 0-38.4-12.8-9.6-9.6-9.6-22.4-9.6-35.2v-160c0-19.2 12.8-32 32-32s32 12.8 32 32V672c83.2-73.6 131.2-176 131.2-288 0-214.4-172.8-387.2-387.2-387.2-41.6 0-80 6.4-118.4 19.2-16 3.2-32-3.2-38.4-19.2-6.4-16 3.2-32 19.2-38.4 44.8-12.8 89.6-19.2 137.6-19.2 246.4 0 444.8 198.4 444.8 444.8 0 121.6-48 236.8-134.4 320z"  horiz-adv-x="1024" />

    
    <glyph glyph-name="diandiandianshu" unicode="&#59008;" d="M512 81.45454500000005c-39.563636 0-69.818182 30.254545-69.818182 69.818182s30.254545 69.818182 69.818182 69.818182 69.818182-30.254545 69.818182-69.818182-30.254545-69.818182-69.818182-69.818182z m0 232.727273c-39.563636 0-69.818182 30.254545-69.818182 69.818182s30.254545 69.818182 69.818182 69.818182 69.818182-30.254545 69.818182-69.818182-30.254545-69.818182-69.818182-69.818182z m0 232.727273c-39.563636 0-69.818182 30.254545-69.818182 69.818182s30.254545 69.818182 69.818182 69.818182 69.818182-30.254545 69.818182-69.818182-30.254545-69.818182-69.818182-69.818182z"  horiz-adv-x="1024" />

    
    <glyph glyph-name="chexiao" unicode="&#59009;" d="M656 604.8H169.6l137.6 134.4c12.8 12.8 12.8 32 0 44.8-12.8 12.8-32 12.8-44.8 0L89.6 614.4c-25.6-25.6-25.6-73.6 0-99.2l169.6-169.6c6.4-6.4 16-9.6 22.4-9.6s16 3.2 22.4 9.6c12.8 12.8 12.8 32 0 44.8l-134.4 134.4H640c131.2 0 236.8-41.6 236.8-220.8s-105.6-220.8-236.8-220.8H288c-16 0-32-19.2-32-41.6S268.8 0 288 0h368c169.6 0 304 76.8 304 304 0 224-137.6 300.8-304 300.8z"  horiz-adv-x="1024" />

    
    <glyph glyph-name="guanbixiao" unicode="&#59010;" d="M556.8 384l316.8 316.8c12.8 12.8 12.8 32 0 44.8-12.8 12.8-32 12.8-44.8 0L512 428.8 195.2 745.6c-12.8 12.8-32 12.8-44.8 0-12.8-12.8-12.8-32 0-44.8l316.8-316.8-316.8-316.8c-12.8-12.8-12.8-32 0-44.8 12.8-12.8 32-12.8 44.8 0l316.8 316.8 316.8-316.8c12.8-12.8 32-12.8 44.8 0 12.8 12.8 12.8 32 0 44.8L556.8 384z"  horiz-adv-x="1024" />

    
    <glyph glyph-name="guanbi" unicode="&#59011;" d="M697.6 560l-9.6 9.6c-9.6 9.6-25.6 9.6-35.2 0L512 428.8l-140.8 140.8c-9.6 9.6-25.6 9.6-35.2 0l-9.6-9.6c-9.6-9.6-9.6-25.6 0-35.2l140.8-140.8-140.8-140.8c-9.6-9.6-9.6-25.6 0-35.2l9.6-9.6c9.6-9.6 25.6-9.6 35.2 0l140.8 140.8 140.8-140.8c9.6-9.6 25.6-9.6 35.2 0l9.6 9.6c9.6 9.6 9.6 25.6 0 35.2L556.8 384l140.8 140.8c9.6 9.6 9.6 25.6 0 35.2zM512 832C265.6 832 64 630.4 64 384s201.6-448 448-448 448 201.6 448 448S758.4 832 512 832z m0-832C300.8 0 128 172.8 128 384S300.8 768 512 768s384-172.8 384-384-172.8-384-384-384z"  horiz-adv-x="1024" />

    
    <glyph glyph-name="guanbida" unicode="&#59012;" d="M542.254545 384L872.727273 714.472727c9.309091 9.309091 9.309091 23.272727 0 32.581818-9.309091 9.309091-23.272727 9.309091-32.581818 0L509.672727 416.581818 181.527273 744.727273c-9.309091 9.309091-23.272727 9.309091-32.581818 0-9.309091-9.309091-9.309091-23.272727 0-32.581818L477.090909 384 148.945455 55.854545c-6.981818-9.309091-6.981818-25.6 2.327272-34.90909 9.309091-9.309091 23.272727-9.309091 32.581818 0L512 349.090909l328.145455-328.145454c9.309091-6.981818 25.6-6.981818 32.581818 0 9.309091 9.309091 9.309091 23.272727 0 32.581818L542.254545 384z"  horiz-adv-x="1024" />

    
    <glyph glyph-name="shezhi" unicode="&#59013;" d="M512 546.909091c-90.763636 0-162.909091-72.145455-162.909091-162.909091s72.145455-162.909091 162.909091-162.909091 162.909091 72.145455 162.909091 162.909091-72.145455 162.909091-162.909091 162.909091z m0-279.272727c-65.163636 0-116.363636 51.2-116.363636 116.363636s51.2 116.363636 116.363636 116.363636 116.363636-51.2 116.363636-116.363636-51.2-116.363636-116.363636-116.363636zM830.836364 514.327273c-11.636364 27.927273-25.6 53.527273-44.218182 79.127272 13.963636 27.927273 16.290909 60.509091 9.309091 90.763637-9.309091 34.909091-30.254545 62.836364-62.836364 79.127273-58.181818 32.581818-132.654545 16.290909-172.218182-37.236364-16.290909 2.327273-32.581818 4.654545-48.872727 4.654545s-32.581818-2.327273-48.872727-4.654545c-39.563636 53.527273-114.036364 69.818182-172.218182 34.909091-30.254545-18.618182-53.527273-46.545455-62.836364-79.127273-9.309091-30.254545-4.654545-62.836364 9.309091-90.763636-18.618182-23.272727-32.581818-48.872727-44.218182-79.127273C125.672727 509.672727 69.818182 453.818182 69.818182 384s55.854545-125.672727 123.345454-130.327273c11.636364-27.927273 25.6-53.527273 44.218182-79.127272-13.963636-27.927273-16.290909-60.509091-9.309091-90.763637 9.309091-34.909091 30.254545-62.836364 62.836364-79.127273 20.945455-11.636364 44.218182-18.618182 65.163636-18.618181 41.890909 0 81.454545 18.618182 107.054546 53.527272 13.963636-2.327273 27.927273-4.654545 44.218182-4.654545s34.909091 2.327273 51.2 4.654545c25.6-34.909091 65.163636-53.527273 107.054545-53.527272 23.272727 0 44.218182 4.654545 65.163636 18.618181 30.254545 18.618182 53.527273 46.545455 62.836364 79.127273 9.309091 30.254545 4.654545 62.836364-9.309091 90.763637 18.618182 23.272727 32.581818 48.872727 44.218182 79.127272 69.818182 4.654545 125.672727 60.509091 125.672727 130.327273s-55.854545 125.672727-123.345454 130.327273z m0-216.436364h-9.309091c-9.309091 0-18.618182 2.327273-27.927273 4.654546-11.636364-46.545455-34.909091-86.109091-65.163636-121.018182 9.309091-9.309091 16.290909-18.618182 20.945454-30.254546 0-2.327273 4.654545-11.636364 4.654546-13.963636 2.327273-13.963636 2.327273-27.927273 0-41.890909-6.981818-23.272727-20.945455-41.890909-41.890909-53.527273-32.581818-18.618182-72.145455-13.963636-100.072728 9.309091-13.963636 11.636364-23.272727 25.6-27.927272 44.218182-23.272727-6.981818-48.872727-9.309091-74.472728-9.309091s-44.218182 4.654545-67.490909 9.309091c-4.654545-16.290909-13.963636-32.581818-27.927273-44.218182-27.927273-23.272727-67.490909-27.927273-100.072727-9.309091-20.945455 11.636364-34.909091 30.254545-41.890909 53.527273-4.654545 13.963636-4.654545 27.927273 0 41.890909 0 2.327273 2.327273 11.636364 4.654546 13.963636 4.654545 11.636364 11.636364 20.945455 20.945454 30.254546-30.254545 34.909091-55.854545 74.472727-67.490909 121.018182-9.309091-2.327273-18.618182-4.654545-27.927273-4.654546h-9.309091c-41.890909 6.981818-74.472727 41.890909-74.472727 86.109091s32.581818 79.127273 74.472727 86.109091h9.309091c9.309091 0 18.618182-2.327273 27.927273-4.654546 13.963636 46.545455 37.236364 86.109091 67.490909 121.018182-9.309091 9.309091-16.290909 18.618182-20.945454 30.254546 0 2.327273-4.654545 11.636364-4.654546 13.963636-2.327273 13.963636-2.327273 27.927273 0 41.890909 6.981818 23.272727 20.945455 41.890909 41.890909 53.527273 32.581818 18.618182 72.145455 13.963636 100.072727-9.309091 13.963636-11.636364 23.272727-25.6 27.927273-44.218182 23.272727 6.981818 44.218182 9.309091 69.818182 9.309091s46.545455-4.654545 69.818182-9.309091c4.654545 16.290909 13.963636 32.581818 25.6 44.218182 16.290909 13.963636 37.236364 20.945455 58.181818 20.945455 13.963636 0 30.254545-4.654545 44.218182-11.636364 20.945455-11.636364 34.909091-30.254545 41.890909-53.527273 4.654545-13.963636 4.654545-27.927273 0-41.890909 0-2.327273-2.327273-11.636364-4.654546-13.963636-4.654545-11.636364-11.636364-20.945455-20.945454-30.254546 30.254545-34.909091 55.854545-74.472727 67.490909-121.018182 9.309091 2.327273 18.618182 4.654545 27.927273 4.654546h9.309091c41.890909-6.981818 74.472727-41.890909 74.472727-86.109091s-32.581818-79.127273-74.472727-86.109091z"  horiz-adv-x="1024" />

    
    <glyph glyph-name="zidingyitoutu" unicode="&#59014;" d="M961.163636 537.6L735.418182 795.927273c-4.654545 4.654545-11.636364 6.981818-18.618182 6.981818h-27.927273c-9.309091 0-18.618182-6.981818-23.272727-16.290909-20.945455-58.181818-83.781818-118.690909-155.927273-118.690909s-134.981818 60.509091-155.927272 118.690909c-2.327273 9.309091-11.636364 16.290909-23.272728 16.290909H302.545455c-6.981818 0-13.963636-2.327273-18.618182-6.981818L62.836364 537.6c-23.272727-27.927273-20.945455-69.818182 4.654545-95.418182l107.054546-109.381818c11.636364-13.963636 27.927273-18.618182 44.218181-18.618182 4.654545 0 9.309091 0 13.963637 2.327273v-283.927273c0-37.236364 30.254545-67.490909 67.490909-67.490909h423.563636c37.236364 0 67.490909 30.254545 67.490909 67.490909V316.509091c23.272727-4.654545 46.545455 0 62.836364 13.963636l100.072727 109.381818c27.927273 25.6 30.254545 69.818182 6.981818 97.745455z m-39.563636-62.836364l-100.072727-109.381818c-4.654545-4.654545-18.618182-4.654545-30.254546 0V407.272727c0 13.963636-11.636364 23.272727-23.272727 23.272728s-23.272727-11.636364-23.272727-23.272728v-372.363636c0-11.636364-9.309091-20.945455-20.945455-20.945455H300.218182c-11.636364 0-20.945455 9.309091-20.945455 20.945455V407.272727c0 13.963636-11.636364 23.272727-23.272727 23.272728s-23.272727-11.636364-23.272727-23.272728v-41.890909c-6.981818-6.981818-18.618182-6.981818-25.6 0l-107.054546 109.381818c-9.309091 6.981818-9.309091 20.945455-2.327272 30.254546L316.509091 756.363636h2.327273c30.254545-67.490909 104.727273-134.981818 193.163636-134.981818 88.436364 0 162.909091 67.490909 193.163636 134.981818l218.763637-251.345454c9.309091-9.309091 9.309091-20.945455-2.327273-30.254546z"  horiz-adv-x="1024" />

    
    <glyph glyph-name="biaoqian" unicode="&#59015;" d="M635.792042 509.859199a32.581818 34.909091 45.001 1 1 46.076845 46.078453 32.581818 34.909091 45.001 1 1-46.076845-46.078453ZM856.436364 367.709091c18.618182 20.945455 30.254545 34.909091 27.927272 62.836364v228.072727c0 27.927273-13.963636 51.2-32.581818 67.490909-16.290909 18.618182-41.890909 30.254545-67.490909 30.254545h-228.072727c-27.927273 0-41.890909-6.981818-62.836364-25.6L176.872727 411.927273c-48.872727-55.854545-48.872727-139.636364 2.327273-195.490909l165.236364-165.236364c53.527273-53.527273 139.636364-51.2 195.490909-2.327273l316.509091 318.836364zM505.018182 81.454545c-37.236364-34.909091-90.763636-32.581818-130.327273 2.327273L209.454545 249.018182c-30.254545 37.236364-32.581818 93.090909-2.327272 130.327273L528.290909 698.181818c11.636364 9.309091 23.272727 11.636364 39.563636 11.636364h218.763637c11.636364 0 23.272727-6.981818 32.581818-13.963637 9.309091-9.309091 18.618182-20.945455 18.618182-32.581818v-218.763636c0-16.290909-4.654545-32.581818-13.963637-44.218182L505.018182 81.454545z"  horiz-adv-x="1024" />

    
    <glyph glyph-name="shouye-biaoqian" unicode="&#59016;" d="M353.745455 58.181818c-30.254545 0-60.509091 11.636364-83.781819 34.909091l-188.509091 188.509091c-46.545455 46.545455-46.545455 121.018182 0 167.563636L402.618182 772.654545C423.563636 791.272727 437.527273 802.909091 465.454545 802.909091h230.4C749.381818 802.909091 791.272727 761.018182 791.272727 707.490909v-128c0-13.963636-11.636364-23.272727-23.272727-23.272727-13.963636 0-23.272727 11.636364-23.272727 23.272727V709.818182c0 25.6-20.945455 46.545455-46.545455 46.545454h-218.763636c-16.290909 0-30.254545-6.981818-41.890909-16.290909L114.036364 416.581818c-27.927273-27.927273-27.927273-72.145455 0-100.072727l193.163636-193.163636c20.945455-20.945455 51.2-20.945455 79.127273-9.309091 11.636364 4.654545 25.6 0 32.581818-11.636364 6.981818-11.636364 2.327273-25.6-9.309091-32.581818-18.618182-6.981818-37.236364-11.636364-55.854545-11.636364zM557.134158 568.76966a34.909091 34.909091 0 1 1 49.368048 49.369771 34.909091 34.909091 0 1 1-49.368048-49.369771ZM698.181818-34.909091c-153.6 0-279.272727 125.672727-279.272727 279.272727s125.672727 279.272727 279.272727 279.272728 279.272727-125.672727 279.272727-279.272728-125.672727-279.272727-279.272727-279.272727z m0 509.672727c-128 0-230.4-102.4-230.4-230.4s102.4-230.4 230.4-230.4 230.4 102.4 230.4 230.4-102.4 230.4-230.4 230.4zM791.272727 267.636364h-69.818182v69.818181c0 13.963636-11.636364 23.272727-23.272727 23.272728s-23.272727-9.309091-23.272727-23.272728v-69.818181h-69.818182c-13.963636 0-23.272727-9.309091-23.272727-23.272728s9.309091-23.272727 23.272727-23.272727h69.818182v-69.818182c0-13.963636 11.636364-23.272727 23.272727-23.272727s23.272727 9.309091 23.272727 23.272727v69.818182h69.818182c13.963636 0 23.272727 9.309091 23.272728 23.272727s-9.309091 23.272727-23.272728 23.272728z"  horiz-adv-x="1024" />

    
    <glyph glyph-name="yijianyichu" unicode="&#59017;" d="M512 826.181818C267.636364 826.181818 69.818182 628.363636 69.818182 384s197.818182-442.181818 442.181818-442.181818 442.181818 197.818182 442.181818 442.181818S756.363636 826.181818 512 826.181818z m0-837.818182c-218.763636 0-395.636364 176.872727-395.636364 395.636364S293.236364 779.636364 512 779.636364s395.636364-176.872727 395.636364-395.636364-176.872727-395.636364-395.636364-395.636364zM721.454545 407.272727H302.545455c-13.963636 0-23.272727-11.636364-23.272728-23.272727 0-13.963636 11.636364-23.272727 23.272728-23.272727h418.90909c13.963636 0 23.272727 9.309091 23.272728 23.272727s-11.636364 23.272727-23.272728 23.272727z"  horiz-adv-x="1024" />

    
    <glyph glyph-name="guanlishipin" unicode="&#59018;" d="M309.527273 190.836364l-114.036364-121.018182-65.163636 69.818182c-9.309091 9.309091-23.272727 9.309091-32.581818 0s-9.309091-25.6 0-34.909091l81.454545-86.109091c6.981818-4.654545 11.636364-6.981818 18.618182-6.981818s11.636364 2.327273 16.290909 6.981818l130.327273 137.309091c9.309091 9.309091 9.309091 25.6 0 34.909091-11.636364 9.309091-25.6 9.309091-34.909091 0zM209.454545 267.636364c65.163636 0 116.363636 51.2 116.363637 116.363636s-51.2 116.363636-116.363637 116.363636-116.363636-51.2-116.363636-116.363636 51.2-116.363636 116.363636-116.363636z m0 186.181818c39.563636 0 69.818182-30.254545 69.818182-69.818182s-30.254545-69.818182-69.818182-69.818182-69.818182 30.254545-69.818181 69.818182 30.254545 69.818182 69.818181 69.818182z m100.072728 295.563636l-114.036364-121.018182-65.163636 69.818182c-9.309091 9.309091-23.272727 9.309091-32.581818 0s-9.309091-25.6 0-34.909091l81.454545-86.109091c6.981818-4.654545 11.636364-6.981818 18.618182-6.981818s11.636364 2.327273 16.290909 6.981818l130.327273 137.309091c9.309091 9.309091 9.309091 25.6 0 34.909091-11.636364 9.309091-25.6 9.309091-34.909091 0zM907.636364 407.272727H535.272727c-13.963636 0-23.272727-9.309091-23.272727-23.272727s9.309091-23.272727 23.272727-23.272727h372.363637c13.963636 0 23.272727 9.309091 23.272727 23.272727s-9.309091 23.272727-23.272727 23.272727z m0-279.272727H535.272727c-13.963636 0-23.272727-9.309091-23.272727-23.272727s9.309091-23.272727 23.272727-23.272728h372.363637c13.963636 0 23.272727 9.309091 23.272727 23.272728s-9.309091 23.272727-23.272727 23.272727zM535.272727 640h372.363637c13.963636 0 23.272727 9.309091 23.272727 23.272727s-9.309091 23.272727-23.272727 23.272728H535.272727c-13.963636 0-23.272727-9.309091-23.272727-23.272728s9.309091-23.272727 23.272727-23.272727z"  horiz-adv-x="1024" />

    
    <glyph glyph-name="shaohouguankan" unicode="&#59019;" d="M619.054545 472.436364l-214.10909 151.272727c-4.654545 4.654545-9.309091 4.654545-16.29091 4.654545-13.963636 0-25.6-11.636364-25.6-23.272727V295.563636c0-13.963636 11.636364-23.272727 25.6-23.272727 4.654545 0 11.636364 2.327273 13.963637 4.654546l216.436363 151.272727c6.981818 4.654545 11.636364 11.636364 11.636364 20.945454 0 11.636364-4.654545 18.618182-11.636364 23.272728z m-211.781818-137.309091v232.727272l167.563637-116.363636-167.563637-116.363636zM756.363636-69.81818199999998c-109.381818 0-197.818182 88.436364-197.818181 197.818182s88.436364 197.818182 197.818181 197.818182S954.181818 237.38181799999995 954.181818 128s-88.436364-197.818182-197.818182-197.818182z m0 349.090909c-83.781818 0-151.272727-67.490909-151.272727-151.272727s67.490909-151.272727 151.272727-151.272727S907.636364 44.218181999999956 907.636364 128s-67.490909 151.272727-151.272728 151.272727zM816.872727 100.07272699999999l-39.563636 23.272728v53.527272c0 11.636364-9.309091 23.272727-23.272727 23.272728-11.636364 0-23.272727-9.309091-23.272728-23.272728v-74.472727c0-2.327273 0-2.327273 2.327273-4.654545 0-2.327273 2.327273-2.327273 2.327273-4.654546s2.327273-2.327273 2.327273-2.327273l2.327272-2.327272L791.272727 58.18181800000002c2.327273-2.327273 6.981818-2.327273 11.636364-2.327273 6.981818 0 16.290909 4.654545 18.618182 11.636364 9.309091 11.636364 4.654545 25.6-4.654546 32.581818zM493.381818 58.18181800000002H302.545455C174.545455 58.18181800000002 69.818182 162.909091 69.818182 290.909091V616.727273C69.818182 744.727273 174.545455 849.454545 302.545455 849.454545h325.818181c128 0 232.727273-104.727273 232.727273-232.727272v-237.381818c0-13.963636-9.309091-23.272727-23.272727-23.272728s-23.272727 9.309091-23.272727 23.272728V616.727273c0 102.4-83.781818 186.181818-186.181819 186.181818H302.545455c-102.4 0-186.181818-83.781818-186.181819-186.181818v-325.818182c0-102.4 83.781818-186.181818 186.181819-186.181818h190.836363c13.963636 0 23.272727-9.309091 23.272727-23.272728s-11.636364-23.272727-23.272727-23.272727z"  horiz-adv-x="1024" />

    
    <glyph glyph-name="shiyongxiaochuangbofang" unicode="&#59020;" d="M397.963636 104.727273H162.909091c-25.6 0-46.545455 20.945455-46.545455 46.545454V709.818182c0 25.6 20.945455 46.545455 46.545455 46.545454h558.545454c25.6 0 46.545455-20.945455 46.545455-46.545454v-290.909091c0-11.636364 11.636364-20.945455 23.272727-20.945455s23.272727 9.309091 23.272728 20.945455V709.818182c0 51.2-41.890909 93.090909-93.09091 93.090909H162.909091C111.709091 802.909091 69.818182 761.018182 69.818182 709.818182v-558.545455c0-51.2 41.890909-93.090909 93.090909-93.090909h235.054545c11.636364 0 20.945455 11.636364 20.945455 23.272727s-9.309091 23.272727-20.945455 23.272728zM442.181818 640c-13.963636 0-23.272727-9.309091-23.272727-23.272727v-162.909091h-162.909091c-13.963636 0-23.272727-9.309091-23.272727-23.272727s9.309091-23.272727 23.272727-23.272728h186.181818c13.963636 0 23.272727 9.309091 23.272727 23.272728v186.181818c0 13.963636-11.636364 23.272727-23.272727 23.272727zM242.036364 630.690909c-9.309091-9.309091-9.309091-23.272727 0-32.581818l132.654545-132.654546c9.309091-9.309091 23.272727-9.309091 32.581818 0s9.309091 23.272727 0 32.581819l-132.654545 132.654545c-9.309091 9.309091-23.272727 9.309091-32.581818 0zM861.090909 337.454545H581.818182c-51.2 0-93.090909-41.890909-93.090909-93.090909v-186.181818c0-51.2 41.890909-93.090909 93.090909-93.090909h279.272727c51.2 0 93.090909 41.890909 93.090909 93.090909v186.181818c0 51.2-41.890909 93.090909-93.090909 93.090909z m46.545455-279.272727c0-25.6-20.945455-46.545455-46.545455-46.545454H581.818182c-25.6 0-46.545455 20.945455-46.545455 46.545454v186.181818c0 25.6 20.945455 46.545455 46.545455 46.545455h279.272727c25.6 0 46.545455-20.945455 46.545455-46.545455v-186.181818z"  horiz-adv-x="1024" />

    
    <glyph glyph-name="gaojiantousu" unicode="&#59021;" d="M884.363636 777.309091c-37.236364-20.945455-207.127273-100.072727-360.727272-6.981818C353.745455 875.054545 188.509091 805.236364 139.636364 779.636364c-13.963636-9.309091-23.272727-13.963636-23.272728-23.272728v-791.272727c0-11.636364 9.309091-23.272727 23.272728-23.272727s23.272727 9.309091 23.272727 23.272727V281.6c39.563636 20.945455 186.181818 86.109091 337.454545-6.981818 67.490909-41.890909 134.981818-55.854545 193.163637-55.854546 90.763636 0 162.909091 32.581818 190.836363 48.872728 4.654545 4.654545 23.272727 13.963636 23.272728 23.272727V756.363636c0 13.963636-9.309091 27.927273-23.272728 20.945455z m-23.272727-470.109091c-39.563636-20.945455-186.181818-83.781818-337.454545 6.981818C372.363636 407.272727 228.072727 363.054545 162.909091 332.8V737.745455c39.563636 20.945455 186.181818 86.109091 337.454545-6.981819 67.490909-41.890909 134.981818-55.854545 193.163637-55.854545 72.145455 0 132.654545 20.945455 167.563636 37.236364v-404.945455zM512 674.909091c-13.963636 0-23.272727-9.309091-23.272727-23.272727v-162.909091c0-13.963636 9.309091-23.272727 23.272727-23.272728s23.272727 9.309091 23.272727 23.272728v162.909091c0 13.963636-9.309091 23.272727-23.272727 23.272727zM512 442.181818c-13.963636 0-23.272727-9.309091-23.272727-23.272727v-23.272727c0-13.963636 9.309091-23.272727 23.272727-23.272728s23.272727 9.309091 23.272727 23.272728v23.272727c0 13.963636-9.309091 23.272727-23.272727 23.272727z"  horiz-adv-x="1024" />

    
    <glyph glyph-name="buganxingqu" unicode="&#59022;" d="M614.4 183.854545l-88.436364 46.545455c-6.981818 4.654545-18.618182 4.654545-25.6 0l-90.763636-44.218182c-11.636364-6.981818-16.290909-20.945455-11.636364-32.581818 6.981818-11.636364 20.945455-16.290909 34.909091-9.309091l81.454546 39.563636 79.127272-41.890909c11.636364-6.981818 27.927273-2.327273 32.581819 9.309091 6.981818 11.636364 0 25.6-11.636364 32.581818zM439.854545 428.218182c0 6.981818-2.327273 11.636364-6.981818 16.290909l-2.327272 2.327273-109.381819 88.436363c-9.309091 6.981818-25.6 6.981818-32.581818-2.327272-9.309091-9.309091-6.981818-23.272727 2.327273-32.581819l88.436364-72.145454-88.436364-72.145455c-9.309091-6.981818-11.636364-23.272727-2.327273-32.581818 9.309091-9.309091 23.272727-9.309091 32.581818-2.327273l109.381819 88.436364c4.654545 4.654545 9.309091 11.636364 9.30909 18.618182zM512 826.181818C267.636364 826.181818 69.818182 628.363636 69.818182 384s197.818182-442.181818 442.181818-442.181818 442.181818 197.818182 442.181818 442.181818S756.363636 826.181818 512 826.181818z m0-837.818182c-218.763636 0-395.636364 176.872727-395.636364 395.636364S293.236364 779.636364 512 779.636364s395.636364-176.872727 395.636364-395.636364-176.872727-395.636364-395.636364-395.636364zM735.418182 532.945455c-9.309091 9.309091-23.272727 9.309091-32.581818 2.327272l-107.054546-88.436363c-4.654545-4.654545-6.981818-9.309091-6.981818-16.290909s2.327273-13.963636 6.981818-16.29091l107.054546-88.436363c9.309091-6.981818 25.6-6.981818 32.581818 2.327273 9.309091 9.309091 6.981818 23.272727-2.327273 32.581818l-88.436364 69.818182 88.436364 72.145454c9.309091 6.981818 11.636364 20.945455 2.327273 30.254546z"  horiz-adv-x="1024" />

    
    <glyph glyph-name="buganxingqutianchong" unicode="&#59023;" d="M512 826.181818C267.636364 826.181818 69.818182 628.363636 69.818182 384s197.818182-442.181818 442.181818-442.181818 442.181818 197.818182 442.181818 442.181818S756.363636 826.181818 512 826.181818z m-223.418182-502.690909c-9.309091 9.309091-6.981818 25.6 2.327273 32.581818l88.436364 72.145455-88.436364 72.145454c-9.309091 9.309091-11.636364 23.272727-2.327273 32.581819 6.981818 9.309091 23.272727 9.309091 32.581818 2.327272l109.381819-88.436363 2.327272-2.327273c4.654545-4.654545 6.981818-9.309091 6.981818-16.290909 0-6.981818-2.327273-13.963636-9.30909-18.618182l-109.381819-88.436364c-9.309091-6.981818-23.272727-6.981818-32.581818 2.327273zM626.036364 151.272727c-4.654545-11.636364-20.945455-16.290909-32.581819-9.309091l-79.127272 41.890909-81.454546-39.563636c-13.963636-6.981818-27.927273-2.327273-34.909091 9.309091-4.654545 11.636364 0 25.6 11.636364 32.581818l90.763636 44.218182c6.981818 4.654545 18.618182 4.654545 25.6 0l88.436364-46.545455c11.636364-6.981818 18.618182-20.945455 11.636364-32.581818z m107.054545 209.454546c9.309091-9.309091 11.636364-23.272727 2.327273-32.581818-6.981818-9.309091-23.272727-9.309091-32.581818-2.327273l-107.054546 88.436363c-4.654545 4.654545-6.981818 9.309091-6.981818 16.29091 0 6.981818 2.327273 11.636364 6.981818 16.290909l107.054546 88.436363c9.309091 6.981818 23.272727 6.981818 32.581818-2.327272 9.309091-9.309091 6.981818-23.272727-2.327273-30.254546L644.654545 430.545455l88.436364-69.818182z"  horiz-adv-x="1024" />

    
    <glyph glyph-name="saoyisao" unicode="&#59024;" d="M930.909091 197.818182c-13.963636 0-23.272727-9.309091-23.272727-23.272727v-69.818182c0-39.563636-30.254545-69.818182-69.818182-69.818182h-116.363637c-13.963636 0-23.272727-9.309091-23.272727-23.272727s9.309091-23.272727 23.272727-23.272728h116.363637c65.163636 0 116.363636 51.2 116.363636 116.363637v69.818182c0 13.963636-9.309091 23.272727-23.272727 23.272727zM93.090909 570.181818c13.963636 0 23.272727 9.309091 23.272727 23.272727v69.818182c0 39.563636 30.254545 69.818182 69.818182 69.818182h116.363637c13.963636 0 23.272727 9.309091 23.272727 23.272727s-9.309091 23.272727-23.272727 23.272728H186.181818c-65.163636 0-116.363636-51.2-116.363636-116.363637v-69.818182c0-13.963636 9.309091-23.272727 23.272727-23.272727zM721.454545 733.090909h116.363637c39.563636 0 69.818182-30.254545 69.818182-69.818182v-69.818182c0-13.963636 9.309091-23.272727 23.272727-23.272727s23.272727 9.309091 23.272727 23.272727v69.818182c0 65.163636-51.2 116.363636-116.363636 116.363637h-116.363637c-13.963636 0-23.272727-9.309091-23.272727-23.272728s9.309091-23.272727 23.272727-23.272727zM302.545455 34.909091H186.181818c-39.563636 0-69.818182 30.254545-69.818182 69.818182v69.818182c0 13.963636-9.309091 23.272727-23.272727 23.272727s-23.272727-9.309091-23.272727-23.272727v-69.818182c0-65.163636 51.2-116.363636 116.363636-116.363637h116.363637c13.963636 0 23.272727 9.309091 23.272727 23.272728s-9.309091 23.272727-23.272727 23.272727zM949.527273 407.272727H76.8c-16.290909 0-30.254545-9.309091-30.254545-23.272727s13.963636-23.272727 27.927272-23.272727h875.054546c13.963636 0 27.927273 9.309091 27.927272 23.272727s-13.963636 23.272727-27.927272 23.272727z"  horiz-adv-x="1024" />

    
    <glyph glyph-name="shanchu" unicode="&#59025;" d="M535.272727 221.090909v186.181818c0 13.963636-9.309091 23.272727-23.272727 23.272728s-23.272727-9.309091-23.272727-23.272728v-186.181818c0-13.963636 9.309091-23.272727 23.272727-23.272727s23.272727 9.309091 23.272727 23.272727zM395.636364 221.090909v186.181818c0 13.963636-9.309091 23.272727-23.272728 23.272728s-23.272727-9.309091-23.272727-23.272728v-186.181818c0-13.963636 9.309091-23.272727 23.272727-23.272727s23.272727 9.309091 23.272728 23.272727zM442.181818 756.363636h139.636364c13.963636 0 23.272727 9.309091 23.272727 23.272728s-9.309091 23.272727-23.272727 23.272727h-139.636364c-13.963636 0-23.272727-9.309091-23.272727-23.272727s9.309091-23.272727 23.272727-23.272728zM674.909091 221.090909v186.181818c0 13.963636-9.309091 23.272727-23.272727 23.272728s-23.272727-9.309091-23.272728-23.272728v-186.181818c0-13.963636 9.309091-23.272727 23.272728-23.272727s23.272727 9.309091 23.272727 23.272727zM791.272727 69.818182c0-25.6-34.909091-58.181818-58.181818-58.181818h-442.181818c-23.272727 0-58.181818 32.581818-58.181818 58.181818V570.181818H186.181818v-505.018182c0-51.2 48.872727-100.072727 97.745455-100.072727h453.818182c48.872727 0 100.072727 48.872727 100.072727 100.072727V570.181818h-46.545455v-500.363636zM884.363636 686.545455H139.636364c-13.963636 0-23.272727-9.309091-23.272728-23.272728s9.309091-23.272727 23.272728-23.272727h744.727272c13.963636 0 23.272727 9.309091 23.272728 23.272727s-9.309091 23.272727-23.272728 23.272728z"  horiz-adv-x="1024" />

    
    <glyph glyph-name="fanhui" unicode="&#59026;" d="M688 822.4L281.6 409.6c-12.8-12.8-12.8-38.4 0-51.2l406.4-412.8c12.8-12.8 35.2-12.8 51.2 0l3.2 3.2c12.8 12.8 12.8 38.4 0 51.2L364.8 384 742.4 764.8c12.8 12.8 12.8 38.4 0 51.2l-3.2 3.2c-16 16-38.4 16-51.2 3.2z"  horiz-adv-x="1024" />

    
    <glyph glyph-name="gengduo" unicode="&#59027;" d="M336 822.4l406.4-412.8c12.8-12.8 12.8-38.4 0-51.2L336-54.4c-12.8-12.8-35.2-12.8-51.2 0l-3.2 3.2c-12.8 12.8-12.8 38.4 0 51.2l377.6 384L281.6 764.8c-12.8 12.8-12.8 38.4 0 51.2l3.2 3.2c16 16 38.4 16 51.2 3.2z"  horiz-adv-x="1024" />

    
    <glyph glyph-name="xialada" unicode="&#59028;" d="M892.8 614.4L512 236.8 131.2 614.4c-12.8 12.8-38.4 12.8-51.2 0l-6.4-3.2c-12.8-12.8-12.8-35.2 0-51.2l412.8-406.4c12.8-12.8 38.4-12.8 51.2 0l412.8 406.4c12.8 12.8 12.8 35.2 0 51.2l-3.2 3.2c-16 12.8-38.4 12.8-54.4 0z"  horiz-adv-x="1024" />

    
    <glyph glyph-name="shouqida" unicode="&#59029;" d="M892.8 153.6L512 531.2 131.2 153.6c-12.8-12.8-38.4-12.8-51.2 0l-3.2 3.2c-12.8 12.8-12.8 35.2 0 51.2L486.4 614.4c12.8 12.8 38.4 12.8 51.2 0l412.8-406.4c12.8-12.8 12.8-35.2 0-51.2l-3.2-3.2c-16-12.8-38.4-12.8-54.4 0z"  horiz-adv-x="1024" />

    
    <glyph glyph-name="fanhuitianchong" unicode="&#59030;" d="M195.2 700.8C19.2 524.8 19.2 240 195.2 67.2c176-176 460.8-176 633.6 0 176 176 176 460.8 0 633.6C656 876.8 368 876.8 195.2 700.8z m441.6-22.4c12.8-12.8 12.8-32 0-44.8L390.4 384l249.6-249.6c12.8-12.8 12.8-32 0-44.8s-32-12.8-44.8 0l-272 272c-12.8 12.8-12.8 32 0 44.8l272 272c9.6 12.8 32 12.8 41.6 0z"  horiz-adv-x="1024" />

    
    <glyph glyph-name="gengduotianchong" unicode="&#59031;" d="M195.2 700.8C19.2 524.8 19.2 240 195.2 67.2c176-176 460.8-176 633.6 0 176 176 176 460.8 0 633.6C656 876.8 368 876.8 195.2 700.8z m236.8-22.4l272-272c12.8-12.8 12.8-32 0-44.8l-272-272c-12.8-12.8-32-12.8-44.8 0s-12.8 32 0 44.8l249.6 249.6-249.6 249.6c-12.8 12.8-12.8 32 0 44.8 9.6 12.8 32 12.8 44.8 0z"  horiz-adv-x="1024" />

    
    <glyph glyph-name="xialatianchong" unicode="&#59032;" d="M828.8 700.8C652.8 876.8 368 876.8 195.2 700.8 19.2 524.8 19.2 240 195.2 67.2c176-176 460.8-176 633.6 0 176 172.8 176 460.8 0 633.6z m-22.4-236.8L534.4 192c-12.8-12.8-32-12.8-44.8 0l-272 272c-12.8 12.8-12.8 32 0 44.8s32 12.8 44.8 0l249.6-249.6 249.6 249.6c12.8 12.8 32 12.8 44.8 0 12.8-9.6 12.8-32 0-44.8z"  horiz-adv-x="1024" />

    
    <glyph glyph-name="shouqitianchong" unicode="&#59033;" d="M828.8 700.8C652.8 876.8 368 876.8 195.2 700.8 19.2 524.8 19.2 240 195.2 67.2c176-176 460.8-176 633.6 0 176 172.8 176 460.8 0 633.6z m-22.4-441.6c-12.8-12.8-32-12.8-44.8 0L512 505.6 262.4 256c-12.8-12.8-32-12.8-44.8 0s-12.8 32 0 44.8l272 272c12.8 12.8 32 12.8 44.8 0l272-272c12.8-9.6 12.8-32 0-41.6z"  horiz-adv-x="1024" />

    
    <glyph glyph-name="xialaxiao" unicode="&#59034;" d="M515.2 246.4L169.6 592c-12.8 12.8-32 12.8-44.8 0s-12.8-35.2 0-48l368-364.8c12.8-12.8 32-12.8 44.8 0l361.6 361.6c12.8 12.8 12.8 35.2 0 48s-32 12.8-44.8 0L515.2 246.4z"  horiz-adv-x="1024" />

    
    <glyph glyph-name="shouqixiao" unicode="&#59035;" d="M854.4 182.4c12.8-12.8 32-12.8 44.8 0s12.8 35.2 0 48L537.6 592c-12.8 12.8-32 12.8-44.8 0L124.8 224c-12.8-12.8-12.8-35.2 0-48s32-12.8 44.8 0l345.6 342.4 339.2-336z"  horiz-adv-x="1024" />

    
    <glyph glyph-name="bofangqi-danmuguan" unicode="&#59036;" d="M558.545455 174.545455H155.927273C123.345455 174.545455 93.090909 204.8 93.090909 237.381818V577.163636C93.090909 609.745455 123.345455 640 155.927273 640h572.509091c32.581818 0 62.836364-30.254545 62.836363-62.836364V546.909091c0-13.963636 9.309091-23.272727 23.272728-23.272727s23.272727 9.309091 23.272727 23.272727v30.254545c0 58.181818-51.2 109.381818-109.381818 109.381819H155.927273C97.745455 686.545455 46.545455 635.345455 46.545455 577.163636v-339.781818C46.545455 179.2 97.745455 128 155.927273 128H558.545455c13.963636 0 23.272727 9.309091 23.272727 23.272727s-9.309091 23.272727-23.272727 23.272728zM325.818182 546.909091h46.545454v-46.545455h-46.545454zM418.909091 546.909091h186.181818v-46.545455h-186.181818zM186.181818 430.545455h46.545455v-46.545455H186.181818zM279.272727 430.545455h186.181818v-46.545455h-186.181818zM279.272727 314.181818h46.545455v-46.545454h-46.545455zM372.363636 314.181818h186.181819v-46.545454h-186.181819zM802.909091 430.545455c-95.418182 0-174.545455-79.127273-174.545455-174.545455s79.127273-174.545455 174.545455-174.545455 174.545455 79.127273 174.545454 174.545455-79.127273 174.545455-174.545454 174.545455z m0-302.545455c-69.818182 0-128 58.181818-128 128 0 23.272727 6.981818 44.218182 16.290909 62.836364l174.545455-174.545455c-18.618182-9.309091-39.563636-16.290909-62.836364-16.290909z m97.745454 46.545455L721.454545 353.745455c23.272727 18.618182 51.2 30.254545 81.454546 30.254545 69.818182 0 128-58.181818 128-128 0-30.254545-11.636364-60.509091-30.254546-81.454545z"  horiz-adv-x="1024" />

    
    <glyph glyph-name="bofangqi-danmukai" unicode="&#59037;" d="M558.545455 174.545455H155.927273C123.345455 174.545455 93.090909 204.8 93.090909 237.381818V577.163636C93.090909 609.745455 123.345455 640 155.927273 640h572.509091c32.581818 0 62.836364-30.254545 62.836363-62.836364V546.909091c0-13.963636 9.309091-23.272727 23.272728-23.272727s23.272727 9.309091 23.272727 23.272727v30.254545c0 58.181818-51.2 109.381818-109.381818 109.381819H155.927273C97.745455 686.545455 46.545455 635.345455 46.545455 577.163636v-339.781818C46.545455 179.2 97.745455 128 155.927273 128H558.545455c13.963636 0 23.272727 9.309091 23.272727 23.272727s-9.309091 23.272727-23.272727 23.272728zM325.818182 546.909091h46.545454v-46.545455h-46.545454zM418.909091 546.909091h186.181818v-46.545455h-186.181818zM186.181818 430.545455h46.545455v-46.545455H186.181818zM279.272727 430.545455h186.181818v-46.545455h-186.181818zM372.363636 314.181818h186.181819v-46.545454h-186.181819zM279.272727 314.181818h46.545455v-46.545454h-46.545455zM802.909091 430.545455c-95.418182 0-174.545455-79.127273-174.545455-174.545455s79.127273-174.545455 174.545455-174.545455 174.545455 79.127273 174.545454 174.545455-79.127273 174.545455-174.545454 174.545455z m0-302.545455c-69.818182 0-128 58.181818-128 128s58.181818 128 128 128 128-58.181818 128-128-58.181818-128-128-128zM900.654545 309.527273c-9.309091 9.309091-23.272727 9.309091-32.581818 0l-81.454545-81.454546-48.872727 48.872728c-9.309091 9.309091-23.272727 9.309091-32.581819 0-9.309091-9.309091-9.309091-23.272727 0-32.581819l65.163637-65.163636c9.309091-9.309091 23.272727-9.309091 32.581818 0l97.745454 97.745455c9.309091 9.309091 9.309091 23.272727 0 32.581818z"  horiz-adv-x="1024" />

    
    <glyph glyph-name="bofangqi-xuanji" unicode="&#59038;" d="M805.236364 430.545455h-167.563637C581.818182 430.545455 535.272727 477.090909 535.272727 532.945455v51.2C535.272727 640 581.818182 686.545455 637.672727 686.545455h167.563637C861.090909 686.545455 907.636364 640 907.636364 584.145455v-51.2c0-55.854545-46.545455-102.4-102.4-102.4z m-167.563637 209.454545c-30.254545 0-55.854545-25.6-55.854545-55.854545v-51.2c0-30.254545 25.6-55.854545 55.854545-55.854546h167.563637c30.254545 0 55.854545 25.6 55.854545 55.854546v51.2c0 30.254545-25.6 55.854545-55.854545 55.854545h-167.563637zM386.327273 430.545455H218.763636C162.909091 430.545455 116.363636 477.090909 116.363636 532.945455v51.2C116.363636 640 162.909091 686.545455 218.763636 686.545455h167.563637C442.181818 686.545455 488.727273 640 488.727273 584.145455v-51.2c0-55.854545-46.545455-102.4-102.4-102.4z m-167.563637 209.454545C188.509091 640 162.909091 614.4 162.909091 584.145455v-51.2C162.909091 502.690909 188.509091 477.090909 218.763636 477.090909h167.563637c30.254545 0 55.854545 25.6 55.854545 55.854546v51.2c0 30.254545-25.6 55.854545-55.854545 55.854545H218.763636zM386.327273 128H218.763636C162.909091 128 116.363636 174.545455 116.363636 230.4v51.2C116.363636 337.454545 162.909091 384 218.763636 384h167.563637c55.854545 0 102.4-46.545455 102.4-102.4v-51.2c0-55.854545-46.545455-102.4-102.4-102.4z m-167.563637 209.454545C188.509091 337.454545 162.909091 311.854545 162.909091 281.6v-51.2C162.909091 200.145455 188.509091 174.545455 218.763636 174.545455h167.563637c30.254545 0 55.854545 25.6 55.854545 55.854545v51.2c0 30.254545-25.6 55.854545-55.854545 55.854545H218.763636zM805.236364 128h-167.563637C581.818182 128 535.272727 174.545455 535.272727 230.4v51.2c0 55.854545 46.545455 102.4 102.4 102.4h167.563637c55.854545 0 102.4-46.545455 102.4-102.4v-51.2c0-55.854545-46.545455-102.4-102.4-102.4z m-167.563637 209.454545c-30.254545 0-55.854545-25.6-55.854545-55.854545v-51.2c0-30.254545 25.6-55.854545 55.854545-55.854545h167.563637c30.254545 0 55.854545 25.6 55.854545 55.854545v51.2c0 30.254545-25.6 55.854545-55.854545 55.854545h-167.563637z"  horiz-adv-x="1024" />

    
    <glyph glyph-name="bofangqi-suoping" unicode="&#59039;" d="M791.272727 477.090909h-23.272727v69.818182c0 141.963636-116.363636 256-256 256-141.963636 0-256-114.036364-256-256v-69.818182h-23.272727c-51.2 0-93.090909-41.890909-93.090909-93.090909v-325.818182c0-51.2 41.890909-93.090909 93.090909-93.090909h558.545454c51.2 0 93.090909 41.890909 93.090909 93.090909V384c0 51.2-41.890909 93.090909-93.090909 93.090909z m-488.727272 69.818182c0 116.363636 93.090909 209.454545 209.454545 209.454545s209.454545-93.090909 209.454545-209.454545v-69.818182H302.545455v69.818182z m535.272727-488.727273c0-25.6-20.945455-46.545455-46.545455-46.545454H232.727273c-25.6 0-46.545455 20.945455-46.545455 46.545454V384c0 25.6 20.945455 46.545455 46.545455 46.545455h558.545454c25.6 0 46.545455-20.945455 46.545455-46.545455v-325.818182zM512 302.545455c-25.6 0-46.545455-20.945455-46.545455-46.545455 0-16.290909 9.309091-32.581818 23.272728-39.563636v-53.527273c0-11.636364 9.309091-23.272727 23.272727-23.272727s23.272727 11.636364 23.272727 23.272727v53.527273c13.963636 6.981818 23.272727 23.272727 23.272728 39.563636 0 25.6-20.945455 46.545455-46.545455 46.545455z"  horiz-adv-x="1024" />

    
    <glyph glyph-name="bofangqi-danmudingbuguan" unicode="&#59040;" d="M186.181818 546.909091h46.545455v-46.545455H186.181818zM558.545455 174.545455H155.927273C123.345455 174.545455 93.090909 204.8 93.090909 237.381818V577.163636C93.090909 609.745455 123.345455 640 155.927273 640h572.509091c32.581818 0 62.836364-30.254545 62.836363-62.836364V546.909091c0-13.963636 9.309091-23.272727 23.272728-23.272727s23.272727 9.309091 23.272727 23.272727v30.254545c0 58.181818-51.2 109.381818-109.381818 109.381819H155.927273C97.745455 686.545455 46.545455 635.345455 46.545455 577.163636v-339.781818C46.545455 179.2 97.745455 128 155.927273 128H558.545455c13.963636 0 23.272727 9.309091 23.272727 23.272727s-9.309091 23.272727-23.272727 23.272728zM802.909091 430.545455c-95.418182 0-174.545455-79.127273-174.545455-174.545455s79.127273-174.545455 174.545455-174.545455 174.545455 79.127273 174.545454 174.545455-79.127273 174.545455-174.545454 174.545455z m0-302.545455c-69.818182 0-128 58.181818-128 128 0 23.272727 6.981818 44.218182 16.290909 62.836364l174.545455-174.545455c-18.618182-9.309091-39.563636-16.290909-62.836364-16.290909z m97.745454 46.545455L721.454545 353.745455c23.272727 18.618182 51.2 30.254545 81.454546 30.254545 69.818182 0 128-58.181818 128-128 0-30.254545-11.636364-60.509091-30.254546-81.454545zM279.272727 546.909091h46.545455v-46.545455h-46.545455zM372.363636 546.909091h46.545455v-46.545455h-46.545455zM465.454545 546.909091h46.545455v-46.545455h-46.545455zM558.545455 546.909091h46.545454v-46.545455h-46.545454zM651.636364 546.909091h46.545454v-46.545455h-46.545454z"  horiz-adv-x="1024" />

    
    <glyph glyph-name="bofangqi-danmudingbukai" unicode="&#59041;" d="M186.181818 546.909091h46.545455v-46.545455H186.181818zM279.272727 546.909091h46.545455v-46.545455h-46.545455zM372.363636 546.909091h46.545455v-46.545455h-46.545455zM465.454545 546.909091h46.545455v-46.545455h-46.545455zM558.545455 546.909091h46.545454v-46.545455h-46.545454zM651.636364 546.909091h46.545454v-46.545455h-46.545454zM721.454545 686.545455H162.909091c-65.163636 0-116.363636-51.2-116.363636-116.363637v-325.818182c0-65.163636 51.2-116.363636 116.363636-116.363636h558.545454c65.163636 0 116.363636 51.2 116.363637 116.363636V570.181818c0 65.163636-51.2 116.363636-116.363637 116.363637z m69.818182-442.181819c0-39.563636-30.254545-69.818182-69.818182-69.818181H162.909091c-39.563636 0-69.818182 30.254545-69.818182 69.818181V570.181818c0 39.563636 30.254545 69.818182 69.818182 69.818182h558.545454c39.563636 0 69.818182-30.254545 69.818182-69.818182v-325.818182z"  horiz-adv-x="1024" />

    
    <glyph glyph-name="bofangqi-danmudibuguan" unicode="&#59042;" d="M186.181818 314.181818h46.545455v-46.545454H186.181818zM558.545455 174.545455H155.927273C123.345455 174.545455 93.090909 204.8 93.090909 237.381818V577.163636C93.090909 609.745455 123.345455 640 155.927273 640h572.509091c32.581818 0 62.836364-30.254545 62.836363-62.836364V546.909091c0-13.963636 9.309091-23.272727 23.272728-23.272727s23.272727 9.309091 23.272727 23.272727v30.254545c0 58.181818-51.2 109.381818-109.381818 109.381819H155.927273C97.745455 686.545455 46.545455 635.345455 46.545455 577.163636v-339.781818C46.545455 179.2 97.745455 128 155.927273 128H558.545455c13.963636 0 23.272727 9.309091 23.272727 23.272727s-9.309091 23.272727-23.272727 23.272728zM802.909091 430.545455c-95.418182 0-174.545455-79.127273-174.545455-174.545455s79.127273-174.545455 174.545455-174.545455 174.545455 79.127273 174.545454 174.545455-79.127273 174.545455-174.545454 174.545455z m0-302.545455c-69.818182 0-128 58.181818-128 128 0 23.272727 6.981818 44.218182 16.290909 62.836364l174.545455-174.545455c-18.618182-9.309091-39.563636-16.290909-62.836364-16.290909z m97.745454 46.545455L721.454545 353.745455c23.272727 18.618182 51.2 30.254545 81.454546 30.254545 69.818182 0 128-58.181818 128-128 0-30.254545-11.636364-60.509091-30.254546-81.454545zM279.272727 314.181818h46.545455v-46.545454h-46.545455zM372.363636 314.181818h46.545455v-46.545454h-46.545455zM465.454545 314.181818h46.545455v-46.545454h-46.545455zM558.545455 314.181818h46.545454v-46.545454h-46.545454z"  horiz-adv-x="1024" />

    
    <glyph glyph-name="bofangqi-danmudibukai" unicode="&#59043;" d="M186.181818 314.181818h46.545455v-46.545454H186.181818zM279.272727 314.181818h46.545455v-46.545454h-46.545455zM372.363636 314.181818h46.545455v-46.545454h-46.545455zM465.454545 314.181818h46.545455v-46.545454h-46.545455zM558.545455 314.181818h46.545454v-46.545454h-46.545454zM651.636364 314.181818h46.545454v-46.545454h-46.545454zM721.454545 128H162.909091c-65.163636 0-116.363636 51.2-116.363636 116.363636V570.181818c0 65.163636 51.2 116.363636 116.363636 116.363637h558.545454c65.163636 0 116.363636-51.2 116.363637-116.363637v-325.818182c0-65.163636-51.2-116.363636-116.363637-116.363636zM162.909091 640c-39.563636 0-69.818182-30.254545-69.818182-69.818182v-325.818182c0-39.563636 30.254545-69.818182 69.818182-69.818181h558.545454c39.563636 0 69.818182 30.254545 69.818182 69.818181V570.181818c0 39.563636-30.254545 69.818182-69.818182 69.818182H162.909091z"  horiz-adv-x="1024" />

    
    <glyph glyph-name="bofangqi-danmugundongguan" unicode="&#59044;" d="M209.454545 546.909091h46.545455v-46.545455H209.454545zM302.545455 546.909091h302.545454v-46.545455H302.545455zM349.090909 430.545455h302.545455v-46.545455H349.090909zM256 430.545455h46.545455v-46.545455h-46.545455zM558.545455 174.545455H155.927273C123.345455 174.545455 93.090909 204.8 93.090909 237.381818V577.163636C93.090909 609.745455 123.345455 640 155.927273 640h572.509091c32.581818 0 62.836364-30.254545 62.836363-62.836364V546.909091c0-13.963636 9.309091-23.272727 23.272728-23.272727s23.272727 9.309091 23.272727 23.272727v30.254545c0 58.181818-51.2 109.381818-109.381818 109.381819H155.927273C97.745455 686.545455 46.545455 635.345455 46.545455 577.163636v-339.781818C46.545455 179.2 97.745455 128 155.927273 128H558.545455c13.963636 0 23.272727 9.309091 23.272727 23.272727s-9.309091 23.272727-23.272727 23.272728zM802.909091 430.545455c-95.418182 0-174.545455-79.127273-174.545455-174.545455s79.127273-174.545455 174.545455-174.545455 174.545455 79.127273 174.545454 174.545455-79.127273 174.545455-174.545454 174.545455z m0-302.545455c-69.818182 0-128 58.181818-128 128 0 23.272727 6.981818 44.218182 16.290909 62.836364l174.545455-174.545455c-18.618182-9.309091-39.563636-16.290909-62.836364-16.290909z m97.745454 46.545455L721.454545 353.745455c23.272727 18.618182 51.2 30.254545 81.454546 30.254545 69.818182 0 128-58.181818 128-128 0-30.254545-11.636364-60.509091-30.254546-81.454545z"  horiz-adv-x="1024" />

    
    <glyph glyph-name="bofangqi-danmugundongkai" unicode="&#59045;" d="M209.454545 546.909091h46.545455v-46.545455H209.454545zM302.545455 546.909091h302.545454v-46.545455H302.545455zM349.090909 430.545455h302.545455v-46.545455H349.090909zM256 430.545455h46.545455v-46.545455h-46.545455zM728.436364 684.218182H155.927273c-58.181818 0-107.054545-46.545455-107.054546-107.054546v-339.781818c0-58.181818 46.545455-107.054545 107.054546-107.054545h572.509091c58.181818 0 107.054545 48.872727 107.054545 107.054545V577.163636c0 58.181818-46.545455 107.054545-107.054545 107.054546z m65.163636-446.836364c0-37.236364-30.254545-65.163636-65.163636-65.163636H155.927273c-37.236364 0-65.163636 30.254545-65.163637 65.163636V577.163636c0 37.236364 30.254545 65.163636 65.163637 65.163637h572.509091c37.236364 0 65.163636-30.254545 65.163636-65.163637v-339.781818z"  horiz-adv-x="1024" />

    
    <glyph glyph-name="bofangqi-danmucaiseguan" unicode="&#59046;" d="M642.327273 488.727273c-65.163636 65.163636-160.581818 107.054545-249.018182 90.763636-90.763636-16.290909-204.8-109.381818-179.2-214.109091 25.6-107.054545 188.509091-148.945455 249.018182-123.345454 46.545455 18.618182-27.927273 39.563636 0 67.490909s93.090909 4.654545 153.6 23.272727c48.872727 11.636364 88.436364 90.763636 25.6 155.927273z m-321.163637-181.527273c-18.618182 0-34.909091 16.290909-34.909091 34.909091s16.290909 34.909091 34.909091 34.909091 34.909091-16.290909 34.909091-34.909091-16.290909-34.909091-34.909091-34.909091z m-6.981818 90.763636c-23.272727 0-41.890909 18.618182-41.890909 39.563637 0 20.945455 18.618182 39.563636 41.890909 39.563636s41.890909-18.618182 41.890909-39.563636c0-20.945455-18.618182-39.563636-41.890909-39.563637z m95.418182 67.490909c-23.272727 0-41.890909 18.618182-41.890909 39.563637 0 20.945455 18.618182 39.563636 41.890909 39.563636s41.890909-18.618182 41.890909-39.563636c0-20.945455-18.618182-39.563636-41.890909-39.563637z m65.163636 34.909091c0 18.618182 16.290909 34.909091 34.909091 34.909091s34.909091-16.290909 34.909091-34.909091-16.290909-34.909091-34.909091-34.909091-34.909091 16.290909-34.909091 34.909091z m83.781819-125.672727c-18.618182 0-34.909091 16.290909-34.909091 34.909091s16.290909 34.909091 34.909091 34.909091 34.909091-16.290909 34.90909-34.909091-16.290909-34.909091-34.90909-34.909091zM558.545455 174.545455H155.927273C123.345455 174.545455 93.090909 204.8 93.090909 237.381818V577.163636C93.090909 609.745455 123.345455 640 155.927273 640h572.509091c32.581818 0 62.836364-30.254545 62.836363-62.836364V546.909091c0-13.963636 9.309091-23.272727 23.272728-23.272727s23.272727 9.309091 23.272727 23.272727v30.254545c0 58.181818-51.2 109.381818-109.381818 109.381819H155.927273C97.745455 686.545455 46.545455 635.345455 46.545455 577.163636v-339.781818C46.545455 179.2 97.745455 128 155.927273 128H558.545455c13.963636 0 23.272727 9.309091 23.272727 23.272727s-9.309091 23.272727-23.272727 23.272728zM802.909091 430.545455c-95.418182 0-174.545455-79.127273-174.545455-174.545455s79.127273-174.545455 174.545455-174.545455 174.545455 79.127273 174.545454 174.545455-79.127273 174.545455-174.545454 174.545455z m0-302.545455c-69.818182 0-128 58.181818-128 128 0 23.272727 6.981818 44.218182 16.290909 62.836364l174.545455-174.545455c-18.618182-9.309091-39.563636-16.290909-62.836364-16.290909z m97.745454 46.545455L721.454545 353.745455c23.272727 18.618182 51.2 30.254545 81.454546 30.254545 69.818182 0 128-58.181818 128-128 0-30.254545-11.636364-60.509091-30.254546-81.454545z"  horiz-adv-x="1024" />

    
    <glyph glyph-name="bofangqi-danmucaisekai" unicode="&#59047;" d="M721.454545 686.545455H162.909091c-65.163636 0-116.363636-51.2-116.363636-116.363637v-325.818182c0-65.163636 51.2-116.363636 116.363636-116.363636h558.545454c65.163636 0 116.363636 51.2 116.363637 116.363636V570.181818c0 65.163636-51.2 116.363636-116.363637 116.363637z m69.818182-442.181819c0-39.563636-30.254545-69.818182-69.818182-69.818181H162.909091c-39.563636 0-69.818182 30.254545-69.818182 69.818181V570.181818c0 39.563636 30.254545 69.818182 69.818182 69.818182h558.545454c39.563636 0 69.818182-30.254545 69.818182-69.818182v-325.818182zM393.309091 579.490909c-90.763636-16.290909-204.8-109.381818-179.2-214.109091 25.6-107.054545 188.509091-148.945455 249.018182-123.345454 46.545455 18.618182-27.927273 39.563636 0 67.490909s93.090909 4.654545 153.6 23.272727c48.872727 11.636364 88.436364 90.763636 25.6 155.927273-65.163636 65.163636-160.581818 107.054545-249.018182 90.763636z m-72.145455-272.290909c-18.618182 0-34.909091 16.290909-34.909091 34.909091s16.290909 34.909091 34.909091 34.909091 34.909091-16.290909 34.909091-34.909091-16.290909-34.909091-34.909091-34.909091z m-6.981818 90.763636c-23.272727 0-41.890909 18.618182-41.890909 39.563637 0 20.945455 18.618182 39.563636 41.890909 39.563636s41.890909-18.618182 41.890909-39.563636c0-20.945455-18.618182-39.563636-41.890909-39.563637z m95.418182 67.490909c-23.272727 0-41.890909 18.618182-41.890909 39.563637 0 20.945455 18.618182 39.563636 41.890909 39.563636s41.890909-18.618182 41.890909-39.563636c0-20.945455-18.618182-39.563636-41.890909-39.563637z m65.163636 34.909091c0 18.618182 16.290909 34.909091 34.909091 34.909091s34.909091-16.290909 34.909091-34.909091-16.290909-34.909091-34.909091-34.909091-34.909091 16.290909-34.909091 34.909091z m83.781819-125.672727c-18.618182 0-34.909091 16.290909-34.909091 34.909091s16.290909 34.909091 34.909091 34.909091 34.909091-16.290909 34.90909-34.909091-16.290909-34.909091-34.90909-34.909091z"  horiz-adv-x="1024" />

    
    <glyph glyph-name="bofangqi-danmuzitida" unicode="&#59048;" d="M791.272727 686.545455H232.727273c-65.163636 0-116.363636-51.2-116.363637-116.363637v-325.818182c0-65.163636 51.2-116.363636 116.363637-116.363636h558.545454c65.163636 0 116.363636 51.2 116.363637 116.363636V570.181818c0 65.163636-51.2 116.363636-116.363637 116.363637z m69.818182-442.181819c0-39.563636-30.254545-69.818182-69.818182-69.818181H232.727273c-39.563636 0-69.818182 30.254545-69.818182 69.818181V570.181818c0 39.563636 30.254545 69.818182 69.818182 69.818182h558.545454c39.563636 0 69.818182-30.254545 69.818182-69.818182v-325.818182zM367.709091 570.181818l-130.327273-325.818182h55.854546l30.254545 79.127273h144.290909l30.254546-79.127273h55.854545l-128 325.818182h-58.181818z m-25.6-197.818182l53.527273 137.309091 53.527272-137.309091h-107.054545z"  horiz-adv-x="1024" />

    
    <glyph glyph-name="bofangqi-danmuzitixiao" unicode="&#59049;" d="M791.272727 686.545455H232.727273c-65.163636 0-116.363636-51.2-116.363637-116.363637v-325.818182c0-65.163636 51.2-116.363636 116.363637-116.363636h558.545454c65.163636 0 116.363636 51.2 116.363637 116.363636V570.181818c0 65.163636-51.2 116.363636-116.363637 116.363637z m69.818182-442.181819c0-39.563636-30.254545-69.818182-69.818182-69.818181H232.727273c-39.563636 0-69.818182 30.254545-69.818182 69.818181V570.181818c0 39.563636 30.254545 69.818182 69.818182 69.818182h558.545454c39.563636 0 69.818182-30.254545 69.818182-69.818182v-325.818182zM318.836364 477.090909L232.727273 244.363636h37.236363l20.945455 55.854546h93.090909l20.945455-55.854546H442.181818l-83.781818 232.727273h-39.563636z m-16.290909-141.963636l34.90909 97.745454 34.909091-97.745454h-69.818181z"  horiz-adv-x="1024" />

    
    <glyph glyph-name="bofangqi-bofang" unicode="&#59050;" d="M744.727273 344.436364L325.818182 100.072727c-30.254545-18.618182-69.818182 4.654545-69.818182 39.563637v488.727272c0 34.909091 39.563636 58.181818 69.818182 39.563637l418.909091-244.363637c30.254545-16.290909 30.254545-62.836364 0-79.127272z"  horiz-adv-x="1024" />

    
    <glyph glyph-name="bofangqi-zanting" unicode="&#59051;" d="M442.181818 186.181818c0-37.236364-30.254545-69.818182-69.818182-69.818182s-69.818182 30.254545-69.818181 69.818182v395.636364c0 37.236364 30.254545 69.818182 69.818181 69.818182s69.818182-30.254545 69.818182-69.818182v-395.636364z m279.272727 0c0-37.236364-30.254545-69.818182-69.818181-69.818182s-69.818182 30.254545-69.818182 69.818182v395.636364c0 37.236364 30.254545 69.818182 69.818182 69.818182s69.818182-30.254545 69.818181-69.818182v-395.636364z"  horiz-adv-x="1024" />

    
    <glyph glyph-name="bofangqi-xiayiji" unicode="&#59052;" d="M721.454545 344.436364L302.545455 100.072727c-30.254545-18.618182-69.818182 4.654545-69.818182 39.563637v488.727272c0 34.909091 39.563636 58.181818 69.818182 39.563637l418.90909-244.363637c30.254545-16.290909 30.254545-62.836364 0-79.127272zM791.272727 211.781818c0-32.581818-30.254545-60.509091-69.818182-60.509091s-69.818182 27.927273-69.818181 60.509091V556.218182c0 32.581818 30.254545 60.509091 69.818181 60.509091s69.818182-27.927273 69.818182-60.509091v-344.436364z"  horiz-adv-x="1024" />

    
    <glyph glyph-name="bofangqi-AirPlay" unicode="&#59053;" d="M512 849.454545C256 849.454545 46.545455 640 46.545455 384s209.454545-465.454545 465.454545-465.454545 465.454545 209.454545 465.454545 465.454545S768 849.454545 512 849.454545z m-67.490909-637.672727l69.818182 97.745455 67.490909-97.745455h-137.309091z m302.545454 109.381818c0-48.872727-39.563636-88.436364-88.436363-88.436363h-58.181818v18.618182h58.181818c37.236364 0 67.490909 30.254545 67.490909 67.490909v146.618181c0 37.236364-30.254545 69.818182-67.490909 69.818182H365.381818c-37.236364 0-67.490909-30.254545-67.490909-69.818182v-146.618181c0-37.236364 30.254545-67.490909 67.490909-67.490909h58.181818v-18.618182h-58.181818c-48.872727 0-88.436364 39.563636-88.436363 88.436363v146.618182c0 48.872727 39.563636 88.436364 88.436363 88.436364h293.236364c48.872727 0 88.436364-39.563636 88.436363-88.436364v-146.618182z"  horiz-adv-x="1024" />

    
    <glyph glyph-name="bofangqi-houtaibofang" unicode="&#59054;" d="M495.709091 411.927273h13.963636v30.254545h-13.963636v-30.254545z m-18.618182-20.945455v-13.963636c9.309091 0 16.290909-2.327273 23.272727-4.654546l9.309091-4.654545V384l-4.654545 2.327273c-9.309091 2.327273-18.618182 4.654545-27.927273 4.654545z m18.618182 107.054546v-27.927273h13.963636v27.927273h-13.963636z m58.181818 16.290909c-9.309091 2.327273-18.618182 4.654545-30.254545 6.981818l-2.327273-13.963636c9.309091 0 18.618182-2.327273 27.927273-6.981819l4.654545 13.963637zM411.927273 337.454545l-13.963637 6.981819c-4.654545-9.309091-6.981818-20.945455-6.981818-30.254546h13.963637c0 6.981818 2.327273 13.963636 6.981818 23.272727z m32.581818 48.872728c-9.309091-4.654545-18.618182-9.309091-27.927273-16.290909l9.309091-11.636364c6.981818 6.981818 13.963636 11.636364 23.272727 13.963636l-4.654545 13.963637z m-51.2-104.727273c2.327273-9.309091 9.309091-18.618182 16.290909-27.927273l11.636364 9.309091c-4.654545 6.981818-9.309091 13.963636-13.963637 23.272727l-13.963636-4.654545z m41.890909-48.872727c9.309091-4.654545 20.945455-9.309091 30.254545-9.309091l2.327273 13.963636c-9.309091 0-16.290909 4.654545-25.6 6.981818l-6.981818-11.636363z m39.563636 4.654545v-13.963636c11.636364 0 20.945455 2.327273 32.581819 6.981818l-4.654546 13.963636c-11.636364-4.654545-18.618182-6.981818-27.927273-6.981818z m48.872728 18.618182l9.309091-11.636364c6.981818 6.981818 13.963636 16.290909 18.618181 25.6l-13.963636 6.981819c-2.327273-6.981818-9.309091-13.963636-13.963636-20.945455z m53.527272 235.054545c6.981818-2.327273 16.290909-6.981818 30.254546-9.30909l2.327273 13.963636c-11.636364 2.327273-18.618182 4.654545-25.6 6.981818l-6.981819-11.636364z m-32.581818-186.181818h13.963637v30.254546h-13.963637v-30.254546zM512 849.454545C256 849.454545 46.545455 640 46.545455 384s209.454545-465.454545 465.454545-465.454545 465.454545 209.454545 465.454545 465.454545S768 849.454545 512 849.454545z m207.127273-309.527272h-13.963637v-363.054546c0-6.981818-2.327273-13.963636-9.309091-16.290909-6.981818-4.654545-13.963636-4.654545-18.618181-2.327273l-18.618182 6.981819c-4.654545 2.327273-9.309091 2.327273-13.963637 2.327272-4.654545 0-9.309091 0-13.963636-2.327272l-32.581818-11.636364c-9.309091-2.327273-13.963636-2.327273-20.945455-2.327273-6.981818 0-11.636364 2.327273-16.290909 2.327273l-34.909091 13.963636c-4.654545 2.327273-9.309091 4.654545-13.963636 4.654546-4.654545 0-9.309091 0-13.963636-2.327273l-20.945455-6.981818c-4.654545-2.327273-9.309091-2.327273-16.290909-2.327273-4.654545 0-11.636364 0-16.290909 2.327273l-23.272727 6.981818c-6.981818 2.327273-11.636364 2.327273-18.618182 2.327273-6.981818 0-13.963636-2.327273-18.618182-2.327273l-39.563636-13.963636c-4.654545-2.327273-11.636364-2.327273-16.290909 2.327272-4.654545 2.327273-6.981818 9.309091-6.981819 13.963637V539.927273h-13.963636c-6.981818 0-13.963636 6.981818-13.963636 13.963636s6.981818 13.963636 13.963636 13.963636h411.927273c6.981818 0 13.963636-6.981818 13.963636-13.963636s-6.981818-13.963636-13.963636-13.963636z m-100.072728-90.763637h13.963637V477.090909h-13.963637v-27.927273z m-74.472727-86.109091h13.963637v30.254546h-13.963637v-30.254546z m0 58.181819h13.963637v30.254545h-13.963637v-30.254545z m30.254546 11.636363c6.981818-2.327273 16.290909-6.981818 30.254545-9.309091l2.327273 13.963637c-11.636364 2.327273-18.618182 4.654545-25.6 6.981818l-6.981818-11.636364z"  horiz-adv-x="1024" />

    
    <glyph glyph-name="bofangqi-jingxiangfanzhuan" unicode="&#59055;" d="M512 849.454545c256 0 465.454545-209.454545 465.454545-465.454545s-209.454545-465.454545-465.454545-465.454545S46.545455 128 46.545455 384 256 849.454545 512 849.454545zM265.309091 581.818182c-27.927273 0-51.2-23.272727-51.2-51.2v-290.909091c0-27.927273 23.272727-51.2 51.2-51.2h162.909091c27.927273 0 51.2 23.272727 51.2 51.2v83.781818h-20.945455v-83.781818c0-16.290909-13.963636-30.254545-30.254545-30.254546h-162.909091c-16.290909 0-30.254545 13.963636-30.254546 30.254546V530.618182c0 16.290909 13.963636 30.254545 30.254546 30.254545h162.909091c16.290909 0 30.254545-13.963636 30.254545-30.254545v-83.781818h20.945455v83.781818c0 27.927273-23.272727 51.2-51.2 51.2h-162.909091zM723.781818 384l-46.545454 30.254545-46.545455 30.254546v-41.890909H393.309091v41.890909l-46.545455-30.254546-46.545454-30.254545 46.545454-30.254545 46.545455-30.254546v41.890909H628.363636v-41.890909l46.545455 30.254546 48.872727 30.254545z m-148.945454 190.836364c-6.981818-9.309091 2.327273-18.618182 11.636363-16.290909 9.309091 4.654545 18.618182 0 27.927273 0 4.654545 0 6.981818 2.327273 9.309091 4.654545 2.327273 6.981818-2.327273 13.963636-9.309091 13.963636-6.981818 4.654545-32.581818 6.981818-39.563636-2.327272z m-11.636364-53.527273c0 4.654545-2.327273 6.981818-4.654545 9.309091-6.981818 2.327273-13.963636-2.327273-13.963637-9.309091v-62.836364c0-4.654545 2.327273-6.981818 4.654546-9.309091 6.981818-2.327273 13.963636 2.327273 13.963636 9.309091v62.836364z m0-207.127273c0 4.654545-2.327273 6.981818-4.654545 9.309091-6.981818 2.327273-13.963636-2.327273-13.963637-9.309091v-62.836363c0-4.654545 2.327273-6.981818 4.654546-9.309091 6.981818-2.327273 13.963636 2.327273 13.963636 9.309091V314.181818z m18.618182-104.727273c-13.963636 4.654545-20.945455-13.963636-6.981818-18.618181 9.309091-4.654545 13.963636-4.654545 23.272727-4.654546 4.654545 0 6.981818 2.327273 9.309091 4.654546 2.327273 6.981818-2.327273 13.963636-9.309091 13.963636-6.981818 2.327273-9.309091 2.327273-16.290909 4.654545z m79.127273-2.327272c-4.654545 0-6.981818-2.327273-9.309091-4.654546-2.327273-6.981818 2.327273-13.963636 9.309091-13.963636h20.945454c4.654545 0 6.981818 2.327273 9.309091 4.654545 2.327273 6.981818-2.327273 13.963636-9.309091 13.963637h-20.945454z m81.454545 0c-4.654545 0-6.981818-2.327273-9.309091-4.654546-2.327273-6.981818 2.327273-13.963636 9.309091-13.963636h20.945455c18.618182 2.327273 11.636364 23.272727 0 20.945454-4.654545-2.327273-13.963636-2.327273-20.945455-2.327272z m46.545455 34.909091c0-4.654545 2.327273-6.981818 4.654545-9.309091 6.981818-2.327273 13.963636 2.327273 13.963636 9.309091v20.945454c0 4.654545-2.327273 6.981818-4.654545 9.309091-6.981818 2.327273-13.963636-2.327273-13.963636-9.309091v-20.945454z m0 81.454545c0-4.654545 2.327273-6.981818 4.654545-9.309091 6.981818-2.327273 13.963636 2.327273 13.963636 9.309091v62.836364c0 4.654545-2.327273 6.981818-4.654545 9.309091-6.981818 2.327273-13.963636-2.327273-13.963636-9.309091v-62.836364z m0 125.672727c0-4.654545 2.327273-6.981818 4.654545-9.309091 6.981818-2.327273 13.963636 2.327273 13.963636 9.309091v62.836364c0 4.654545-2.327273 6.981818-4.654545 9.309091-6.981818 2.327273-13.963636-2.327273-13.963636-9.309091v-62.836364z m-13.963637 107.054546c6.981818-4.654545 16.290909 2.327273 16.290909 11.636363 0 2.327273-2.327273 4.654545-4.654545 6.981819-6.981818 4.654545-16.290909 6.981818-25.6 6.981818-13.963636 0-13.963636-20.945455 0-20.945455 2.327273 0 9.309091-2.327273 13.963636-4.654545z m-76.8 4.654545c4.654545 0 6.981818 2.327273 9.309091 4.654546 2.327273 6.981818-2.327273 13.963636-9.309091 13.963636h-20.945454c-4.654545 0-6.981818-2.327273-9.309091-4.654545-2.327273-6.981818 2.327273-13.963636 9.309091-13.963637h20.945454z"  horiz-adv-x="1024" />

    
    <glyph glyph-name="bofangqi-bofangxiaodianshi" unicode="&#59056;" d="M830.577778 668.444444H657.066667l74.903703 70.162963c11.377778 11.377778 11.377778 29.392593 0 39.822223-5.688889 5.688889-13.274074 8.533333-21.807407 8.533333-7.585185 0-15.17037-2.844444-21.807407-8.533333L570.785185 668.444444H456.059259L338.488889 778.42963c-5.688889 5.688889-13.274074 8.533333-21.807408 8.533333-7.585185 0-15.17037-2.844444-21.807407-8.533333-11.377778-11.377778-11.377778-29.392593 0-39.822223L369.777778 668.444444H193.422222C117.57037 668.444444 56.888889 600.177778 56.888889 514.844444v-332.8c0-85.333333 60.681481-153.6 136.533333-153.6h42.666667c0-25.6 22.755556-47.407407 50.251852-47.407407s50.251852 20.859259 50.251852 47.407407h353.659259c0-25.6 22.755556-47.407407 50.251852-47.407407s50.251852 20.859259 50.251852 47.407407h38.874074c75.851852 0 136.533333 69.214815 136.533333 153.6V514.844444c0.948148 85.333333-59.733333 153.6-135.585185 153.6zM698.785185 321.422222L425.718519 162.133333c-22.755556-13.274074-41.718519-2.844444-41.718519 24.651852V506.311111c0 26.548148 18.962963 37.925926 41.718519 24.651852l273.066666-160.237037c22.755556-14.222222 22.755556-35.081481 0-49.303704z"  horiz-adv-x="1024" />

    
    <glyph glyph-name="bofangqi-zantingxiaodianshi" unicode="&#59057;" d="M830.577778 668.444444H657.066667l74.903703 70.162963c4.740741 4.740741 8.533333 11.377778 8.533334 17.066667 0.948148 8.533333-1.896296 16.118519-8.533334 22.755556-5.688889 5.688889-13.274074 8.533333-21.807407 8.533333-7.585185 0-15.17037-2.844444-21.807407-8.533333L570.785185 668.444444H456.059259L338.488889 778.42963c-5.688889 5.688889-13.274074 8.533333-21.807408 8.533333-7.585185 0-15.17037-2.844444-21.807407-8.533333-11.377778-11.377778-11.377778-29.392593 0-39.822223L369.777778 668.444444H193.422222C117.57037 668.444444 56.888889 600.177778 56.888889 514.844444v-332.8c0-85.333333 60.681481-153.6 136.533333-153.6h42.666667c0-25.6 22.755556-47.407407 50.251852-47.407407s50.251852 20.859259 50.251852 47.407407h353.659259c0-25.6 22.755556-47.407407 50.251852-47.407407s50.251852 20.859259 50.251852 47.407407h38.874074c75.851852 0 136.533333 69.214815 136.533333 153.6V514.844444c0.948148 85.333333-59.733333 153.6-135.585185 153.6zM455.111111 212.385185c0-25.6-20.859259-46.459259-47.407407-46.459259s-47.407407 20.859259-47.407408 46.459259V479.762963c0 25.6 20.859259 46.459259 47.407408 46.459259s47.407407-20.859259 47.407407-46.459259v-267.377778z m208.592593 0c0-25.6-20.859259-46.459259-47.407408-46.459259s-47.407407 20.859259-47.407407 46.459259V479.762963c0 25.6 20.859259 46.459259 47.407407 46.459259s47.407407-20.859259 47.407408-46.459259v-267.377778z"  horiz-adv-x="1024" />

    
    <glyph glyph-name="paihangbang" unicode="&#59058;" d="M907.636364 11.636364H116.363636c-39.563636 0-69.818182 30.254545-69.818181 69.818181V453.818182c0 39.563636 30.254545 69.818182 69.818181 69.818182h209.454546V686.545455c0 39.563636 30.254545 69.818182 69.818182 69.818181h232.727272c39.563636 0 69.818182-30.254545 69.818182-69.818181v-256h209.454546c39.563636 0 69.818182-30.254545 69.818181-69.818182v-279.272728c0-39.563636-30.254545-69.818182-69.818181-69.818181zM325.818182 477.090909H128c-18.618182 0-34.909091-16.290909-34.909091-34.909091v-349.090909c0-18.618182 16.290909-34.909091 34.909091-34.909091H325.818182V477.090909z m325.818182 197.818182c0 18.618182-16.290909 34.909091-34.909091 34.909091h-209.454546c-18.618182 0-34.909091-16.290909-34.909091-34.909091V58.181818h279.272728V674.909091z m279.272727-325.818182c0 18.618182-16.290909 34.909091-34.909091 34.909091H698.181818v-325.818182h197.818182c18.618182 0 34.909091 16.290909 34.909091 34.909091v256z m-411.927273 130.327273l23.272727-46.545455 51.2-6.981818c4.654545 0 6.981818-6.981818 4.654546-11.636364L558.545455 374.690909l9.30909-53.527273c0-4.654545-4.654545-9.309091-9.30909-6.981818l-46.545455 23.272727-44.218182-23.272727c-4.654545-2.327273-11.636364 2.327273-9.309091 6.981818l9.309091 53.527273-37.236363 37.236364c-4.654545 4.654545-2.327273 11.636364 4.654545 11.636363l51.2 6.981819 23.272727 46.545454c-2.327273 6.981818 6.981818 6.981818 9.309091 2.327273z"  horiz-adv-x="1024" />

    
    <glyph glyph-name="xiazaiwancheng" unicode="&#59059;" d="M512 828.8c-246.4 0-448-201.6-448-448s201.6-448 448-448 448 201.6 448 448-201.6 448-448 448z m230.4-339.2l-281.6-262.4-9.6-6.4c-6.4-3.2-9.6-3.2-12.8-3.2-3.2 0-9.6 3.2-12.8 3.2l-9.6 6.4-134.4 134.4c-12.8 12.8-12.8 32 0 44.8 12.8 12.8 32 12.8 44.8 0l112-112 259.2 240c12.8 9.6 32 9.6 44.8-3.2 12.8-12.8 12.8-32 0-41.6z"  horiz-adv-x="1024" />

    
    <glyph glyph-name="xiazaishibai" unicode="&#59060;" d="M512 832C265.6 832 64 630.4 64 384s201.6-448 448-448 448 201.6 448 448S758.4 832 512 832z m0-688c-25.6 0-48 22.4-48 48s22.4 48 48 48 48-22.4 48-48-22.4-48-48-48z m41.6 185.6c0-32-12.8-57.6-41.6-57.6s-41.6 25.6-41.6 57.6l-16 236.8c0 32 25.6 57.6 54.4 57.6 28.8 0 57.6-25.6 57.6-57.6l-12.8-236.8z"  horiz-adv-x="1024" />

    
    <glyph glyph-name="xiazaizhong" unicode="&#59061;" d="M512 832C265.6 832 64 630.4 64 384s201.6-448 448-448 448 201.6 448 448S758.4 832 512 832z m182.4-521.6l-160-144c-12.8-12.8-32-12.8-44.8 0l-160 140.8c-32 28.8 16 73.6 44.8 44.8l105.6-92.8V582.4c0 41.6 64 41.6 64 0v-323.2l105.6 96c28.8 28.8 73.6-16 44.8-44.8z"  horiz-adv-x="1024" />

    
    </font>
</defs>
</svg>
